<svg width="1920" height="1080" viewBox="0 0 1920 1080" fill="none" xmlns="http://www.w3.org/2000/svg">
<g id="communication_tower (3)" clip-path="url(#clip0_118:38)">
<rect width="1920" height="1080" fill="white"/>
<g id="sky">
<rect id="skybox" width="1920" height="729" fill="url(#paint0_radial_118:38)"/>
<g id="clouds&#38;sun">
<path id="Vector" d="M1010.07 29.3298H829.134C823.633 29.3298 819.174 33.7891 819.174 39.2898V41.0598C819.174 46.5606 823.633 51.0198 829.134 51.0198H1010.07C1015.57 51.0198 1020.03 46.5606 1020.03 41.0598V39.2898C1020.03 33.7891 1015.57 29.3298 1010.07 29.3298Z" fill="#F2F2F2" fill-opacity="0.7"/>
<path id="Vector_2" d="M1055.06 47.8098H874.124C868.623 47.8098 864.164 52.2691 864.164 57.7698V59.5398C864.164 65.0406 868.623 69.4998 874.124 69.4998H1055.06C1060.56 69.4998 1065.02 65.0406 1065.02 59.5398V57.7698C1065.02 52.2691 1060.56 47.8098 1055.06 47.8098Z" fill="#F2F2F2" fill-opacity="0.7"/>
<path id="Vector_3" d="M978.734 63.8799H797.794C792.293 63.8799 787.834 68.3391 787.834 73.8399V75.6099C787.834 81.1106 792.293 85.5699 797.794 85.5699H978.734C984.235 85.5699 988.694 81.1106 988.694 75.6099V73.8399C988.694 68.3391 984.235 63.8799 978.734 63.8799Z" fill="#F2F2F2" fill-opacity="0.7"/>
<path id="Vector_4" d="M666.194 277.6H485.254C479.753 277.6 475.294 282.059 475.294 287.56V289.33C475.294 294.831 479.753 299.29 485.254 299.29H666.194C671.695 299.29 676.154 294.831 676.154 289.33V287.56C676.154 282.059 671.695 277.6 666.194 277.6Z" fill="#F2F2F2" fill-opacity="0.7"/>
<path id="Vector_5" d="M1640.02 82.7646H1459.08C1453.58 82.7646 1449.12 87.2239 1449.12 92.7247V94.4947C1449.12 99.9954 1453.58 104.455 1459.08 104.455H1640.02C1645.52 104.455 1649.98 99.9954 1649.98 94.4947V92.7247C1649.98 87.2239 1645.52 82.7646 1640.02 82.7646Z" fill="#F2F2F2" fill-opacity="0.7"/>
<path id="Vector_6" d="M711.184 296.08H530.244C524.743 296.08 520.284 300.539 520.284 306.04V307.81C520.284 313.311 524.743 317.77 530.244 317.77H711.184C716.685 317.77 721.144 313.311 721.144 307.81V306.04C721.144 300.539 716.685 296.08 711.184 296.08Z" fill="#F2F2F2" fill-opacity="0.7"/>
<path id="Vector_7" d="M1685.01 101.245H1504.07C1498.57 101.245 1494.11 105.704 1494.11 111.205V112.975C1494.11 118.476 1498.57 122.935 1504.07 122.935H1685.01C1690.51 122.935 1694.97 118.476 1694.97 112.975V111.205C1694.97 105.704 1690.51 101.245 1685.01 101.245Z" fill="#F2F2F2" fill-opacity="0.7"/>
<path id="Vector_8" d="M634.854 312.14H453.914C448.413 312.14 443.954 316.599 443.954 322.1V323.87C443.954 329.371 448.413 333.83 453.914 333.83H634.854C640.355 333.83 644.814 329.371 644.814 323.87V322.1C644.814 316.599 640.355 312.14 634.854 312.14Z" fill="#F2F2F2" fill-opacity="0.7"/>
<path id="Vector_9" d="M1608.68 117.305H1427.74C1422.24 117.305 1417.78 121.764 1417.78 127.265V129.035C1417.78 134.535 1422.24 138.995 1427.74 138.995H1608.68C1614.18 138.995 1618.64 134.535 1618.64 129.035V127.265C1618.64 121.764 1614.18 117.305 1608.68 117.305Z" fill="#F2F2F2" fill-opacity="0.7"/>
<path id="Vector_10" d="M465.324 128.15H284.384C278.883 128.15 274.424 132.609 274.424 138.11V139.88C274.424 145.381 278.883 149.84 284.384 149.84H465.324C470.825 149.84 475.284 145.381 475.284 139.88V138.11C475.284 132.609 470.825 128.15 465.324 128.15Z" fill="#F2F2F2" fill-opacity="0.7"/>
<path id="Vector_11" d="M510.324 146.63H329.384C323.883 146.63 319.424 151.089 319.424 156.59V158.36C319.424 163.861 323.883 168.32 329.384 168.32H510.324C515.825 168.32 520.284 163.861 520.284 158.36V156.59C520.284 151.089 515.825 146.63 510.324 146.63Z" fill="#F2F2F2" fill-opacity="0.7"/>
<path id="Vector_12" d="M433.994 162.7H253.054C247.553 162.7 243.094 167.159 243.094 172.66V174.43C243.094 179.931 247.553 184.39 253.054 184.39H433.994C439.495 184.39 443.954 179.931 443.954 174.43V172.66C443.954 167.159 439.495 162.7 433.994 162.7Z" fill="#F2F2F2" fill-opacity="0.7"/>
<g id="Group" opacity="0.5">
<path id="Vector_13" opacity="0.5" d="M382.094 166.72C426.912 166.72 463.244 130.388 463.244 85.5699C463.244 40.752 426.912 4.41992 382.094 4.41992C337.276 4.41992 300.944 40.752 300.944 85.5699C300.944 130.388 337.276 166.72 382.094 166.72Z" fill="url(#paint1_linear_118:38)"/>
</g>
<path id="Vector_14" d="M382.094 157.88C422.03 157.88 454.404 125.506 454.404 85.57C454.404 45.6343 422.03 13.26 382.094 13.26C342.158 13.26 309.784 45.6343 309.784 85.57C309.784 125.506 342.158 157.88 382.094 157.88Z" fill="#FCCC63"/>
</g>
</g>
<g id="background_hills">
<path id="hill_back" d="M657.15 689.65C657.214 710.544 647.342 731.163 628.301 749.91H144.485C139.965 749.91 135.631 749.039 132.434 747.491C129.238 745.942 127.443 744.747 127.443 741.651C119.618 728.135 103.191 684.257 180.64 639.496C270.632 587.486 372.965 533.552 509.795 569.573C554.382 581.311 591.605 598.661 617.54 619.795C643.475 640.929 657.159 665.062 657.15 689.65Z" fill="#9AB967"/>
<path id="hill_front" d="M950.706 749.935C955.24 747.48 957.787 744.151 957.787 740.679C958.946 667.717 930.497 635.625 809.42 599.688C748.257 588.672 681.972 589.321 621.585 601.526C514.646 623.21 138.544 679.05 138.544 744.517V744.611C138.546 747.04 140.329 749.369 143.502 751.086C146.675 752.804 150.978 753.769 155.465 753.769H933.61C940.022 753.769 946.172 752.389 950.706 749.935Z" fill="#BEDD8C"/>
<g id="trees">
<g id="tree" filter="url(#filter0_d_118:38)">
<path id="Vector_15" d="M458.279 511.334C458.101 511.136 457.925 510.938 457.747 510.74C456.338 509.183 454.828 507.644 452.894 506.751C451.972 506.312 450.966 506.079 449.945 506.068C448.889 506.071 447.857 506.348 446.882 506.736C446.421 506.92 445.97 507.129 445.526 507.351C445.019 507.607 444.52 507.879 444.024 508.154C443.093 508.669 442.174 509.207 441.267 509.767C439.462 510.883 437.714 512.083 436.022 513.369C435.145 514.036 434.287 514.724 433.446 515.435C432.664 516.095 431.898 516.772 431.147 517.468C430.987 517.616 430.747 517.376 430.908 517.228C431.105 517.044 431.305 516.861 431.505 516.68C432.071 516.169 432.645 515.668 433.228 515.177C434.291 514.28 435.382 513.417 436.5 512.589C438.24 511.301 440.039 510.1 441.897 508.987C442.826 508.431 443.768 507.898 444.723 507.389C445.011 507.235 445.302 507.085 445.597 506.942C446.267 506.605 446.962 506.322 447.677 506.096C448.689 505.768 449.76 505.663 450.817 505.787C451.837 505.936 452.821 506.276 453.715 506.79C455.613 507.851 457.085 509.492 458.518 511.093C458.663 511.256 458.425 511.496 458.279 511.334Z" fill="#E4E4E4"/>
<path id="Vector_16" d="M452.296 508.711C449.984 507.522 447.024 507.755 444.899 509.24C448.951 509.939 452.959 510.874 456.902 512.041C455.265 511.082 453.984 509.578 452.296 508.711Z" fill="#F2F2F2"/>
<path id="Vector_17" d="M444.876 509.236L444.431 509.598C444.581 509.471 444.738 509.352 444.898 509.24C444.891 509.239 444.883 509.237 444.876 509.236Z" fill="#F2F2F2"/>
<path id="Vector_18" d="M433.912 577.823C434.025 577.876 434.149 577.901 434.274 577.895C434.399 577.889 434.52 577.851 434.627 577.787C434.681 577.753 434.725 577.842 434.671 577.875C434.553 577.946 434.419 577.987 434.281 577.995C434.144 578.002 434.006 577.975 433.881 577.917C433.869 577.913 433.859 577.904 433.853 577.892C433.847 577.88 433.846 577.867 433.85 577.855C433.854 577.842 433.863 577.832 433.874 577.826C433.886 577.82 433.9 577.819 433.912 577.823V577.823Z" fill="white"/>
<path id="Vector_19" d="M483.481 514.399C483.004 513.517 482.938 512.36 483.523 511.546C483.812 512.597 484.464 513.512 485.364 514.129C485.711 514.366 486.122 514.593 486.241 514.997C486.304 515.254 486.265 515.525 486.134 515.755C486.002 515.981 485.842 516.19 485.658 516.376L485.641 516.439C484.778 515.928 483.957 515.281 483.481 514.399Z" fill="#9AB967"/>
<path id="Vector_20" d="M441.094 560.547C436.966 560.547 432.973 559.072 429.836 556.389C428.789 555.493 427.674 553.936 426.522 551.76C425.786 550.359 425.374 548.811 425.316 547.229C425.258 545.647 425.555 544.073 426.186 542.621C425.578 543.24 424.905 543.791 424.18 544.267L423.813 544.511L423.792 544.071C423.778 543.785 423.771 543.5 423.771 543.224C423.77 541.606 423.993 539.997 424.434 538.44C426.436 531.406 426.778 523.851 425.451 515.986C425.224 514.633 425.11 513.263 425.11 511.891C425.11 498.431 436.062 487.481 449.524 487.481C454.656 487.474 459.66 489.087 463.822 492.091C467.984 495.094 471.092 499.335 472.703 504.209L472.776 504.431L472.559 504.519C471.449 504.985 470.279 505.297 469.083 505.443C470.358 505.703 471.659 505.812 472.959 505.768L473.161 505.761L473.21 505.957C473.694 507.898 473.938 509.89 473.938 511.891L473.937 512.107C473.932 513.626 474.248 515.129 474.863 516.518C475.479 517.907 476.38 519.151 477.508 520.168C479.291 521.793 480.715 523.772 481.69 525.977C482.665 528.183 483.17 530.568 483.173 532.98C483.173 535.833 481.233 539.579 479.607 542.218C479.194 542.891 478.635 543.461 477.971 543.886C477.307 544.312 476.555 544.581 475.772 544.675C475.03 544.768 474.276 544.698 473.565 544.468C472.853 544.238 472.201 543.855 471.654 543.345C472.424 544.893 473.428 546.314 474.63 547.557L474.851 547.786L474.576 547.946C471.927 549.491 468.916 550.304 465.85 550.303L465.671 550.302C461.016 550.302 456.597 552.106 453.549 555.25C451.93 556.918 449.994 558.245 447.856 559.155C445.717 560.064 443.418 560.537 441.094 560.547V560.547Z" fill="#9AB967"/>
<path id="Vector_21" d="M434.985 587.682C434.91 587.682 434.838 587.655 434.781 587.606C434.724 587.556 434.688 587.489 434.677 587.414C434.664 587.321 433.367 577.971 434.532 565.545C435.607 554.069 439.06 537.539 449.404 523.964C449.429 523.931 449.46 523.904 449.495 523.883C449.531 523.863 449.57 523.849 449.61 523.844C449.651 523.838 449.692 523.841 449.732 523.851C449.771 523.862 449.809 523.88 449.841 523.905C449.874 523.929 449.901 523.96 449.922 523.996C449.942 524.031 449.956 524.07 449.961 524.111C449.967 524.152 449.964 524.193 449.953 524.232C449.943 524.272 449.925 524.309 449.9 524.342C439.645 537.8 436.22 554.208 435.152 565.603C433.994 577.957 435.281 587.234 435.294 587.327C435.3 587.371 435.297 587.416 435.284 587.459C435.271 587.501 435.25 587.541 435.22 587.575C435.191 587.608 435.155 587.635 435.114 587.654C435.074 587.672 435.03 587.682 434.985 587.682H434.985Z" fill="#3F3D56"/>
<path id="Vector_22" d="M440.156 541.914C440.09 541.915 440.026 541.894 439.973 541.855C439.92 541.816 439.88 541.762 439.86 541.699C439.839 541.637 439.839 541.569 439.86 541.507C439.88 541.444 439.919 541.39 439.973 541.351C440.01 541.324 443.794 538.597 449.452 536.526C454.681 534.611 462.634 532.875 470.821 535.481C470.86 535.493 470.897 535.513 470.928 535.539C470.96 535.566 470.986 535.598 471.005 535.634C471.024 535.671 471.035 535.711 471.039 535.751C471.042 535.792 471.038 535.834 471.025 535.873C471.013 535.912 470.993 535.948 470.966 535.98C470.94 536.011 470.907 536.037 470.871 536.055C470.834 536.074 470.794 536.085 470.753 536.089C470.712 536.092 470.671 536.087 470.632 536.075C462.613 533.522 454.804 535.229 449.666 537.111C444.089 539.153 440.376 541.828 440.339 541.855C440.286 541.894 440.222 541.915 440.156 541.914Z" fill="#3F3D56"/>
<path id="Vector_23" d="M426.407 569.008C425.931 568.126 425.864 566.969 426.449 566.155C426.739 567.206 427.39 568.121 428.29 568.738C428.637 568.975 429.049 569.202 429.168 569.606C429.23 569.863 429.192 570.134 429.06 570.364C428.928 570.59 428.768 570.799 428.584 570.985L428.567 571.048C427.704 570.537 426.884 569.89 426.407 569.008Z" fill="#9AB967"/>
</g>
<g id="bush" filter="url(#filter1_d_118:38)">
<path id="Vector_24" d="M481.931 568.652C481.937 582.774 473.545 587.708 463.19 587.713C462.949 587.713 462.71 587.711 462.472 587.705C461.992 587.695 461.517 587.674 461.047 587.64C451.701 586.983 444.437 581.804 444.43 568.671C444.424 555.08 461.786 537.92 463.088 536.651C463.089 536.651 463.089 536.651 463.09 536.65C463.14 536.601 463.165 536.577 463.165 536.577C463.165 536.577 481.924 554.532 481.931 568.652Z" fill="#BEDD8C"/>
<path id="Vector_25" d="M462.506 585.553L469.359 575.968L462.49 586.605L462.472 587.705C461.992 587.695 461.517 587.674 461.047 587.64L461.779 573.513L461.773 573.403L461.786 573.383L461.855 572.048L454.958 561.391L461.875 571.048L461.893 571.331L462.446 560.657L456.54 549.644L462.517 558.781L463.088 536.651L463.09 536.577L463.09 536.65L463.002 554.102L468.871 547.18L462.977 555.605L462.827 565.162L468.308 555.987L462.805 566.567L462.722 571.882L470.677 559.111L462.692 573.736L462.506 585.553Z" fill="#3F3D56"/>
</g>
<g id="bush_2" filter="url(#filter2_d_118:38)">
<path id="Vector_26" d="M436.271 575.284C436.275 584.698 430.68 587.988 423.777 587.991C423.617 587.991 423.457 587.989 423.298 587.986C422.978 587.979 422.662 587.965 422.348 587.943C416.118 587.504 411.275 584.051 411.271 575.296C411.266 566.235 422.841 554.795 423.709 553.95C423.71 553.95 423.71 553.95 423.711 553.949C423.744 553.917 423.76 553.9 423.76 553.9C423.76 553.9 436.266 565.87 436.271 575.284Z" fill="#BEDD8C"/>
<path id="Vector_27" d="M423.322 586.551L427.89 580.161L423.31 587.252L423.298 587.986C422.979 587.979 422.662 587.965 422.349 587.943L422.837 578.524L422.833 578.451L422.841 578.437L422.888 577.547L418.289 570.443L422.901 576.881L422.913 577.069L423.281 569.954L419.344 562.612L423.329 568.703L423.709 553.949L423.711 553.9L423.711 553.949L423.652 565.583L427.565 560.969L423.636 566.585L423.535 572.957L427.189 566.841L423.521 573.894L423.465 577.437L428.769 568.923L423.445 578.673L423.322 586.551Z" fill="#3F3D56"/>
</g>
</g>
<g id="sit_bush">
<path id="Vector_28" d="M685.585 613.527C679.708 617.919 678.051 625.636 678.051 625.636C678.051 625.636 685.922 626.232 691.798 621.839C697.675 617.447 699.331 609.729 699.331 609.729C699.331 609.729 691.461 609.134 685.585 613.527Z" fill="#9AB967"/>
<path id="Vector_29" d="M678.056 625.562C678.056 625.562 677.97 625.514 677.814 625.418C677.689 625.341 677.518 625.235 677.312 625.098C675.465 623.881 670.681 620.303 668.719 614.781C666.265 607.867 669.163 600.525 669.163 600.525C669.163 600.525 675.486 604.08 678.172 610.465C678.289 610.74 678.398 611.021 678.5 611.307C680.636 617.322 678.719 623.662 678.185 625.207C678.104 625.438 678.056 625.562 678.056 625.562Z" fill="#BEDD8C"/>
<path id="Vector_30" d="M678.084 625.78L677.994 625.715C677.93 625.668 671.552 620.983 669.914 613.881C668.275 606.779 671.955 599.773 671.992 599.703L672.044 599.604L672.134 599.67C672.199 599.716 678.576 604.402 680.215 611.504C681.854 618.606 678.174 625.612 678.137 625.682L678.084 625.78ZM672.112 599.895C671.669 600.778 668.587 607.27 670.103 613.837C671.618 620.405 677.233 624.89 678.017 625.49C678.46 624.607 681.542 618.115 680.026 611.547C678.511 604.98 672.896 600.495 672.112 599.895Z" fill="#9AB967"/>
<path id="Vector_31" opacity="0.1" d="M678.185 625.207C678.042 625.29 677.917 625.36 677.814 625.418C677.587 625.542 677.462 625.604 677.462 625.604C677.462 625.604 677.402 625.425 677.312 625.098C676.815 623.309 675.39 617.073 677.774 611.346C677.899 611.046 678.032 610.752 678.173 610.465C678.29 610.74 678.398 611.021 678.5 611.307C680.636 617.322 678.719 623.662 678.185 625.207Z" fill="black"/>
<path id="Vector_32" d="M688.038 615.582C685.22 622.356 678.144 625.854 678.144 625.854C678.144 625.854 675.638 618.369 678.456 611.596C681.274 604.822 688.349 601.324 688.349 601.324C688.349 601.324 690.856 608.808 688.038 615.582Z" fill="#BEDD8C"/>
<path id="Vector_33" d="M688.206 601.585L678.123 625.62L678.302 625.695L688.385 601.66L688.206 601.585Z" fill="#9AB967"/>
<path id="Vector_34" opacity="0.1" d="M680.75 625.204C680.029 629.89 675.485 628.319 669.986 628.319C664.176 628.319 659.433 630.072 659.137 624.351C664.585 624.467 669.612 624.631 674.053 624.836C674.389 624.852 674.723 624.867 675.052 624.882C675.054 624.883 675.056 624.884 675.059 624.884C677.093 624.983 678.996 625.089 680.75 625.204Z" fill="black"/>
<path id="Vector_35" d="M614.818 623.778C614.818 625.467 613.814 626.057 612.575 626.057C612.546 626.057 612.518 626.057 612.489 626.056C612.432 626.055 612.375 626.052 612.318 626.048C611.2 625.969 610.332 625.349 610.332 623.778C610.332 622.152 612.409 620.101 612.566 619.949L612.566 619.948C612.572 619.942 612.575 619.939 612.575 619.939C612.575 619.939 614.818 622.089 614.818 623.778Z" fill="#BEDD8C"/>
<path id="Vector_36" d="M612.493 625.799L613.314 624.653L612.491 625.925L612.489 626.056C612.432 626.055 612.375 626.052 612.318 626.048L612.407 624.358L612.406 624.345L612.408 624.343L612.416 624.183L611.592 622.908L612.419 624.063L612.421 624.097L612.487 622.82L611.781 621.502L612.496 622.596L612.566 619.949L612.566 619.939V619.948L612.554 622.036L613.257 621.208L612.551 622.216L612.533 623.359L613.189 622.262L612.53 623.528L612.52 624.163L613.472 622.636L612.516 624.385L612.493 625.799Z" fill="#9AB967"/>
<path id="Vector_37" d="M659.121 622.597C659.121 616.168 663.985 610.956 669.985 610.956C675.985 610.956 680.85 616.168 680.85 622.597C680.85 629.025 675.985 627.156 669.985 627.156C663.985 627.156 659.121 629.025 659.121 622.597Z" fill="#9AB967"/>
<path id="Vector_38" d="M652.817 617.085C652.866 617.256 652.92 617.426 652.978 617.595C652.719 617.34 652.464 617.079 652.206 616.826C652.309 616.858 652.413 616.891 652.511 616.929C652.618 616.971 652.72 617.024 652.817 617.085V617.085ZM651.563 616.235C650.037 614.908 648.268 613.88 646.704 612.594C647.558 613.014 648.389 613.503 649.213 613.973C650.191 614.53 651.18 615.065 652.181 615.579C652.018 615.834 651.808 616.057 651.563 616.235V616.235ZM652.216 612.893C652.24 612.868 652.265 612.843 652.289 612.818C652.29 613.007 652.291 613.183 652.293 613.343C652.157 613.298 652.02 613.251 651.884 613.203C652.001 613.107 652.112 613.003 652.216 612.893V612.893ZM638.771 616.486C639.4 615.776 639.946 614.996 640.4 614.163C641.006 615.221 641.99 615.985 642.828 616.871C641.478 616.693 640.127 616.546 638.771 616.486Z" fill="url(#paint2_linear_118:38)"/>
<path id="Vector_39" d="M658.926 598.311C658.926 598.311 662.445 597.532 662.833 600.636C663.221 603.74 660.964 604.326 660.964 604.326L659.535 604.71L654.006 603.255L654.782 601.024L658.926 598.311Z" fill="#2F2E41"/>
<path id="Vector_40" d="M657.658 598.482C660.284 598.482 662.414 596.353 662.414 593.727C662.414 591.1 660.284 588.971 657.658 588.971C655.032 588.971 652.903 591.1 652.903 593.727C652.903 596.353 655.032 598.482 657.658 598.482Z" fill="#2F2E41"/>
<path id="Vector_41" d="M640.948 603.601L641.914 603.796L645.199 608.653L643.75 608.847L640.948 603.601Z" fill="#2F2E41"/>
<path id="Vector_42" d="M617.577 623.31C617.838 624.167 618.159 625.005 618.537 625.817C619.626 625.589 620.698 625.284 621.743 624.904C621.775 624.892 621.143 624.066 621.077 623.998C620.827 623.744 620.503 623.446 620.172 623.302C619.838 623.157 619.427 623.268 619.07 623.286C618.573 623.311 618.075 623.319 617.577 623.31Z" fill="#FBBEBE"/>
<path id="Vector_43" d="M620.178 624.608C619.633 624.437 619.302 623.889 619.081 623.361C618.859 622.832 618.68 622.256 618.26 621.868C618.099 621.876 617.97 622.007 617.89 622.148C617.81 622.288 617.763 622.447 617.671 622.58C617.496 622.833 617.188 622.956 616.967 623.171C616.736 623.396 616.61 623.714 616.371 623.93C616.071 624.202 615.646 624.27 615.252 624.359C614.643 624.499 614.054 624.717 613.502 625.009C613.298 625.131 613.08 625.229 612.853 625.299C612.603 625.347 612.347 625.356 612.095 625.325L610.353 625.2C610.198 625.18 610.04 625.187 609.888 625.221C609.53 625.321 609.307 625.721 609.334 626.094C609.36 626.467 609.592 626.801 609.885 627.031C610.188 627.248 610.523 627.418 610.877 627.534C612.394 628.106 613.956 628.553 615.547 628.868L615.548 629.213C616.654 629.757 617.871 630.04 619.104 630.04C619.195 630.047 619.286 630.031 619.37 629.994C619.492 629.928 619.549 629.785 619.594 629.653C620.012 628.431 620.256 627.156 620.32 625.866C620.351 625.539 620.326 625.209 620.245 624.891C620.15 624.577 620.477 624.709 620.175 624.586" fill="#2F2E41"/>
<path id="Vector_44" d="M653.586 618.041C648.421 618.35 643.317 616.839 638.146 616.677C637.503 616.657 636.853 616.658 636.226 616.799C635.562 616.948 634.943 617.249 634.325 617.536C631.552 618.827 628.683 619.895 625.817 620.963L622.525 622.189C621.867 622.434 621.186 622.683 620.485 622.64C620.172 622.621 619.786 622.573 619.61 622.835C619.074 623.628 619.327 624.794 619.681 625.684C619.796 625.973 619.99 626.285 620.298 626.318C620.515 626.341 620.716 626.216 620.927 626.159C621.526 625.999 622.123 626.402 622.74 626.467C623.502 626.548 624.209 626.115 624.928 625.849C626.121 625.408 627.425 625.422 628.678 625.213C630.78 624.863 632.728 623.887 634.549 622.775C635.243 622.352 635.945 621.898 636.741 621.743C637.657 621.565 638.598 621.801 639.496 622.055C641.637 622.661 643.745 623.379 645.811 624.206C646.899 624.641 647.979 625.108 649.111 625.409C651.56 626.054 654.15 625.903 656.507 624.978C657.333 624.651 658.231 624.074 658.279 623.182C658.306 622.673 657.911 622.225 657.648 621.791C657.479 621.512 657.31 621.233 657.126 620.964C656.235 619.662 655.154 617.947 653.586 618.041Z" fill="#2F2E41"/>
<path id="Vector_45" opacity="0.1" d="M653.586 618.041C648.421 618.35 643.317 616.839 638.146 616.677C637.503 616.657 636.853 616.658 636.226 616.799C635.562 616.948 634.943 617.249 634.325 617.536C631.552 618.827 628.683 619.895 625.817 620.963L622.525 622.189C621.867 622.434 621.186 622.683 620.485 622.64C620.172 622.621 619.786 622.573 619.61 622.835C619.074 623.628 619.327 624.794 619.681 625.684C619.796 625.973 619.99 626.285 620.298 626.318C620.515 626.341 620.716 626.216 620.927 626.159C621.526 625.999 622.123 626.402 622.74 626.467C623.502 626.548 624.209 626.115 624.928 625.849C626.121 625.408 627.425 625.422 628.678 625.213C630.78 624.863 632.728 623.887 634.549 622.775C635.243 622.352 635.945 621.898 636.741 621.743C637.657 621.565 638.598 621.801 639.496 622.055C641.637 622.661 643.745 623.379 645.811 624.206C646.899 624.641 647.979 625.108 649.111 625.409C651.56 626.054 654.15 625.903 656.507 624.978C657.333 624.651 658.231 624.074 658.279 623.182C658.306 622.673 657.911 622.225 657.648 621.791C657.479 621.512 657.31 621.233 657.126 620.964C656.235 619.662 655.154 617.947 653.586 618.041Z" fill="black"/>
<path id="Vector_46" d="M627.493 623.561C628.301 623.837 629.117 624.091 629.939 624.322C630.4 623.566 631.261 623.04 631.457 622.176C631.469 622.138 631.469 622.098 631.457 622.06C631.436 622.023 631.404 621.994 631.365 621.977C630.776 621.651 630.121 621.459 629.449 621.416C628.918 621.382 628.676 621.937 628.435 622.326C628.338 622.484 627.709 623.635 627.493 623.561Z" fill="#FBBEBE"/>
<path id="Vector_47" d="M628.626 623.01C628.148 622.91 627.681 622.653 627.437 622.228C627.323 622.029 627.202 621.761 626.974 621.776C626.762 621.79 626.665 622.042 626.617 622.25C626.439 623.028 626.264 623.813 625.95 624.547C625.637 625.281 625.174 625.97 624.521 626.424C624.222 626.632 623.888 626.788 623.595 627.006C623.332 627.202 623.102 627.447 622.812 627.598C622.617 627.688 622.417 627.762 622.211 627.822C621.909 627.928 621.62 628.068 621.351 628.241C621.114 628.379 620.914 628.57 620.766 628.801C620.693 628.917 620.65 629.049 620.642 629.186C620.633 629.323 620.659 629.46 620.717 629.584C620.78 629.686 620.863 629.774 620.962 629.841C621.061 629.909 621.173 629.955 621.29 629.976C621.526 630.017 621.766 630.023 622.003 629.994C622.945 629.925 623.885 629.841 624.826 629.757C625.223 629.731 625.619 629.676 626.009 629.593C626.215 629.543 626.416 629.477 626.622 629.424C626.973 629.333 627.334 629.281 627.697 629.268C627.802 629.259 627.909 629.268 628.011 629.296C628.229 629.367 628.383 629.584 628.608 629.628C628.752 629.642 628.898 629.622 629.033 629.571C629.711 629.386 630.423 629.391 631.124 629.353C631.433 629.336 631.795 629.278 631.937 629.001C632.113 628.656 631.82 628.271 631.703 627.901C631.645 627.665 631.613 627.423 631.607 627.179C631.553 626.578 631.376 625.994 631.088 625.464C630.848 625.024 630.521 624.537 630.689 624.065C630.747 623.905 630.86 623.755 630.849 623.585C630.799 622.839 629.059 623.1 628.626 623.01Z" fill="#2F2E41"/>
<path id="Vector_48" d="M645.841 609.756C644.926 609.353 644.193 608.624 643.784 607.712C643.697 607.516 643.626 607.311 643.543 607.113C643.273 606.456 642.851 605.871 642.314 605.405C642.179 605.291 642.021 605.182 641.857 605.212C641.699 605.241 641.575 605.397 641.521 605.572C641.475 605.752 641.464 605.939 641.487 606.124C641.533 606.558 641.608 606.99 641.711 607.414L641.961 608.555C641.992 608.73 642.045 608.901 642.117 609.064C642.225 609.256 642.367 609.426 642.537 609.566C642.766 609.777 642.998 609.982 643.234 610.181C643.562 610.496 643.99 610.686 644.443 610.719C645.468 610.909 646.511 611.183 647.377 611.852C647.367 611.845 647.373 611.087 647.358 611C647.319 610.771 647.288 610.544 647.138 610.389C646.803 610.04 646.25 609.938 645.841 609.756Z" fill="#FBBEBE"/>
<path id="Vector_49" opacity="0.1" d="M645.841 609.756C644.926 609.353 644.193 608.624 643.784 607.712C643.697 607.516 643.626 607.311 643.543 607.113C643.273 606.456 642.851 605.871 642.314 605.405C642.179 605.291 642.021 605.182 641.857 605.212C641.699 605.241 641.575 605.397 641.521 605.572C641.475 605.752 641.464 605.939 641.487 606.124C641.533 606.558 641.608 606.99 641.711 607.414L641.961 608.555C641.992 608.73 642.045 608.901 642.117 609.064C642.225 609.256 642.367 609.426 642.537 609.566C642.766 609.777 642.998 609.982 643.234 610.181C643.562 610.496 643.99 610.686 644.443 610.719C645.468 610.909 646.511 611.183 647.377 611.852C647.367 611.845 647.373 611.087 647.358 611C647.319 610.771 647.288 610.544 647.138 610.389C646.803 610.04 646.25 609.938 645.841 609.756Z" fill="black"/>
<path id="Vector_50" d="M656.359 601.027C657.052 601.027 657.615 600.461 657.615 599.764C657.615 599.066 657.052 598.501 656.359 598.501C655.665 598.501 655.103 599.066 655.103 599.764C655.103 600.461 655.665 601.027 656.359 601.027Z" fill="#2F2E41"/>
<path id="Vector_51" d="M655.581 599.001C655.24 598.963 654.862 598.935 654.588 599.144C654.443 599.272 654.328 599.429 654.249 599.606C653.986 600.099 653.727 600.602 653.595 601.145C653.483 601.606 653.464 602.088 653.325 602.541C653.068 603.383 652.408 604.093 652.332 604.97C652.299 605.362 652.364 605.822 652.078 606.091C652.007 606.15 651.932 606.204 651.852 606.251C651.654 606.384 651.485 606.557 651.358 606.759C651.251 606.93 651.168 607.125 651.007 607.245C650.751 607.434 650.327 607.415 650.201 607.708C650.072 608.009 650.4 608.344 650.324 608.662C650.262 608.922 649.973 609.041 649.774 609.218C649.518 609.444 649.401 609.785 649.295 610.11C648.875 610.189 648.442 610.177 648.027 610.073C647.613 609.97 647.225 609.778 646.891 609.51C647.242 610.374 647.25 611.327 647.265 612.259C647.27 612.562 647.26 612.902 647.044 613.112C648.044 613.134 649.02 613.405 649.995 613.625C650.422 613.722 650.885 613.805 651.283 613.623C651.506 613.503 651.705 613.344 651.872 613.154C652.403 612.616 652.96 612.028 653.09 611.282C653.163 610.863 653.092 610.434 653.111 610.009C653.135 609.484 653.296 608.976 653.434 608.468C653.715 607.428 653.904 606.366 653.998 605.293C654.056 604.631 654.627 604.098 654.928 603.507C655.496 602.39 656.077 601.227 656.12 599.973C656.134 599.554 655.996 599.047 655.581 599.001Z" fill="#2F2E41"/>
<path id="Vector_52" opacity="0.1" d="M655.581 599.001C655.24 598.963 654.862 598.935 654.588 599.144C654.443 599.272 654.328 599.429 654.249 599.606C653.986 600.099 653.727 600.602 653.595 601.145C653.483 601.606 653.464 602.088 653.325 602.541C653.068 603.383 652.408 604.093 652.332 604.97C652.299 605.362 652.364 605.822 652.078 606.091C652.007 606.15 651.932 606.204 651.852 606.251C651.654 606.384 651.485 606.557 651.358 606.759C651.251 606.93 651.168 607.125 651.007 607.245C650.751 607.434 650.327 607.415 650.201 607.708C650.072 608.009 650.4 608.344 650.324 608.662C650.262 608.922 649.973 609.041 649.774 609.218C649.518 609.444 649.401 609.785 649.295 610.11C648.875 610.189 648.442 610.177 648.027 610.073C647.613 609.97 647.225 609.778 646.891 609.51C647.242 610.374 647.25 611.327 647.265 612.259C647.27 612.562 647.26 612.902 647.044 613.112C648.044 613.134 649.02 613.405 649.995 613.625C650.422 613.722 650.885 613.805 651.283 613.623C651.506 613.503 651.705 613.344 651.872 613.154C652.403 612.616 652.96 612.028 653.09 611.282C653.163 610.863 653.092 610.434 653.111 610.009C653.135 609.484 653.296 608.976 653.434 608.468C653.715 607.428 653.904 606.366 653.998 605.293C654.056 604.631 654.627 604.098 654.928 603.507C655.496 602.39 656.077 601.227 656.12 599.973C656.134 599.554 655.996 599.047 655.581 599.001Z" fill="black"/>
<path id="Vector_53" d="M654.405 619.129C653.329 618.617 652.542 617.663 651.672 616.846C650.012 615.287 647.982 614.183 646.236 612.722C645.079 611.753 644.044 610.625 642.773 609.814C641.653 609.101 640.384 608.656 639.064 608.514C638.912 608.488 638.757 608.496 638.609 608.537C638.443 608.61 638.297 608.725 638.187 608.871C637.624 609.506 637.123 610.195 636.692 610.927C634.479 614.683 631.337 617.841 628.733 621.334C628.65 621.416 628.6 621.526 628.595 621.643C628.589 621.76 628.627 621.875 628.702 621.965L629.231 623.002C629.528 623.583 630.003 624.26 630.642 624.144C630.934 624.092 631.166 623.877 631.381 623.671L633.759 621.398L636.252 619.015C637.713 617.619 639.198 616.19 640.15 614.404C640.895 615.695 642.215 616.54 643.121 617.721C643.465 618.171 643.747 618.665 644.055 619.141C644.548 619.903 645.108 620.619 645.668 621.334L648.528 624.984C648.918 625.481 649.319 625.989 649.852 626.327C650.529 626.756 651.353 626.869 652.15 626.94C653.224 627.036 654.303 627.075 655.381 627.057C656.203 627.043 657.051 626.989 657.789 626.624C658.527 626.259 659.133 625.509 659.095 624.683C659.075 624.254 658.888 623.851 658.682 623.474C657.661 621.599 656.326 620.043 654.405 619.129Z" fill="#2F2E41"/>
<path id="Vector_54" d="M657.132 601.61C657.665 601.61 658.098 601.175 658.098 600.638C658.098 600.102 657.665 599.667 657.132 599.667C656.598 599.667 656.166 600.102 656.166 600.638C656.166 601.175 656.598 601.61 657.132 601.61Z" fill="#2F2E41"/>
<path id="Vector_55" d="M656.918 599.908C657.153 600.324 657.154 600.842 657.024 601.302C656.894 601.763 656.647 602.179 656.402 602.59C656.161 602.994 655.918 603.401 655.594 603.742C657.086 603.814 658.531 603.229 659.848 602.52C660.906 601.95 661.963 601.246 662.528 600.18C662.197 600.279 661.833 600.181 661.541 599.998C661.257 599.8 661.002 599.562 660.784 599.293L660.036 598.451C659.86 598.267 659.705 598.065 659.575 597.846C659.413 597.548 659.344 597.207 659.377 596.869C659.08 597.181 658.748 597.457 658.387 597.692C657.852 598.04 657.262 598.292 656.727 598.638C656.536 598.761 656.114 598.958 656.223 599.206C656.329 599.449 656.767 599.642 656.918 599.908Z" fill="#FBBEBE"/>
<path id="Vector_56" opacity="0.1" d="M656.918 599.908C657.153 600.324 657.154 600.842 657.024 601.302C656.894 601.763 656.647 602.179 656.402 602.59C656.161 602.994 655.918 603.401 655.594 603.742C657.086 603.814 658.531 603.229 659.848 602.52C660.906 601.95 661.963 601.246 662.528 600.18C662.197 600.279 661.833 600.181 661.541 599.998C661.257 599.8 661.002 599.562 660.784 599.293L660.036 598.451C659.86 598.267 659.705 598.065 659.575 597.846C659.413 597.548 659.344 597.207 659.377 596.869C659.08 597.181 658.748 597.457 658.387 597.692C657.852 598.04 657.262 598.292 656.727 598.638C656.536 598.761 656.114 598.958 656.223 599.206C656.329 599.449 656.767 599.642 656.918 599.908Z" fill="black"/>
<path id="Vector_57" d="M656.938 600.055C656.658 600.527 656.598 601.083 656.938 601.513C656.981 601.566 657.138 601.898 657.206 601.901C657.272 601.895 657.333 601.865 657.376 601.815C657.738 601.484 658.004 601.061 658.322 600.687C658.64 600.313 659.041 599.973 659.525 599.897C660.109 599.806 660.673 600.116 661.183 600.414C661.396 600.538 661.616 600.67 661.75 600.877C661.857 601.071 661.921 601.287 661.936 601.509C662.112 602.838 662.108 604.184 662.104 605.526C662.101 606.495 662.097 607.472 661.914 608.423C661.819 608.915 661.677 609.398 661.609 609.895C661.56 610.333 661.54 610.774 661.549 611.215L661.548 613.061C661.536 613.4 661.56 613.739 661.619 614.073C661.707 614.478 661.899 614.851 662.026 615.245C662.158 615.697 662.249 616.16 662.296 616.629L662.549 618.54C662.628 619.142 662.687 619.801 662.323 620.285C662.159 620.505 661.942 620.68 661.775 620.897C661.151 621.711 661.351 622.872 661.09 623.866C660.885 624.594 660.462 625.242 659.879 625.724C659.432 626.103 658.855 626.402 658.28 626.295C657.504 626.151 657.038 625.342 656.827 624.577C656.615 623.813 656.538 622.98 656.079 622.334C655.705 621.807 655.125 621.475 654.601 621.099C654.076 620.722 653.564 620.237 653.449 619.599C653.4 619.321 653.431 619.034 653.401 618.752C653.359 618.396 653.223 618.057 653.005 617.771C652.788 617.486 652.497 617.264 652.165 617.129C651.767 616.974 651.277 616.919 651.053 616.554C651.631 616.229 652.014 615.627 652.216 614.993C652.418 614.359 652.459 613.686 652.499 613.022L652.632 610.801C652.691 609.808 652.718 608.824 653.155 607.932C653.35 607.533 653.594 607.16 653.797 606.765C654.066 606.212 654.296 605.64 654.485 605.054C654.802 604.143 655.119 603.233 655.401 602.312C655.536 601.872 655.665 601.425 655.905 601.034C656.145 600.643 656.489 600.14 656.938 600.055Z" fill="#6C63FF"/>
<path id="Vector_58" d="M652.006 614.486L652.593 614.507L652.719 613.619C652.735 613.441 652.777 613.266 652.843 613.101C652.94 612.925 653.053 612.76 653.181 612.606C653.76 611.788 653.717 610.703 653.861 609.711C654.052 608.387 654.605 607.147 655.152 605.927L656.293 603.384C656.52 602.953 656.629 602.468 656.608 601.981C656.618 601.588 656.735 600.157 656.745 599.764C656.749 599.619 656.424 599.699 656.359 599.57C656.215 599.287 656.02 600.053 655.753 600.221C655.485 600.389 655.338 600.693 655.224 600.989C654.978 601.63 654.828 602.303 654.599 602.95C654.37 603.597 654.049 604.233 653.534 604.683C653.3 604.888 653.03 605.05 652.809 605.269C652.099 605.971 652.03 607.079 652.005 608.08C651.99 608.675 651.875 614.486 652.006 614.486Z" fill="#2F2E41"/>
<path id="Vector_59" d="M660.468 598.995C659.897 599.219 659.584 599.839 659.423 600.433C659.263 601.028 659.197 601.662 658.891 602.196C658.174 603.443 656.347 603.807 655.841 605.155C655.675 605.596 655.682 606.08 655.638 606.549C655.546 607.515 655.229 608.448 655.135 609.414C655.062 610.162 655.125 610.916 655.188 611.665L655.826 619.283C655.919 620.384 655.916 621.566 655.635 622.633C656.282 622.759 656.954 622.591 657.554 622.317C658.154 622.043 658.702 621.668 659.279 621.349C660.272 620.801 661.367 620.413 662.237 619.684C662.394 619.561 662.529 619.412 662.635 619.243C662.809 618.942 662.824 618.578 662.907 618.239C662.982 617.969 663.078 617.706 663.193 617.45C663.511 616.683 663.789 615.899 664.024 615.101C664.185 614.572 664.313 614.034 664.406 613.489C664.476 613.054 664.513 612.616 664.551 612.177C664.597 611.491 664.733 610.814 664.956 610.164C665.512 608.612 665.826 606.985 665.889 605.338C665.908 605.1 665.892 604.861 665.841 604.628C665.765 604.339 665.595 604.086 665.455 603.822C665.189 603.322 665.03 602.772 664.779 602.264C664.213 601.117 663.214 600.247 662.166 599.518C661.652 599.16 661.05 598.766 660.468 598.995Z" fill="#2F2E41"/>
<path id="Vector_60" d="M647.114 611.423C646.672 611.165 646.23 610.888 645.897 610.498C645.738 610.312 645.606 610.102 645.444 609.918C645.05 609.469 644.491 609.191 643.914 609.046C643.337 608.9 642.736 608.878 642.141 608.873C641.743 608.87 641.335 608.876 640.962 609.016C640.589 609.157 640.253 609.461 640.181 609.854C640.094 610.328 640.404 610.79 640.775 611.094C641.121 611.376 641.528 611.574 641.964 611.671C642.319 611.733 642.678 611.775 643.038 611.797C645.153 612.018 647.04 613.169 648.893 614.217C650.521 615.138 652.181 615.999 653.872 616.8C653.939 616.293 653.967 615.782 653.955 615.271C653.946 614.89 653.928 614.309 653.567 614.085C653.147 613.824 652.456 613.764 651.983 613.609C650.893 613.251 649.829 612.821 648.797 612.32C648.225 612.042 647.664 611.743 647.114 611.423Z" fill="#FBBEBE"/>
<path id="Vector_61" d="M656.359 599.473C658.44 599.473 660.127 597.776 660.127 595.684C660.127 593.591 658.44 591.895 656.359 591.895C654.278 591.895 652.591 593.591 652.591 595.684C652.591 597.776 654.278 599.473 656.359 599.473Z" fill="#FBBEBE"/>
<path id="Vector_62" d="M661.545 603.291C661.208 603.683 661.04 604.189 660.814 604.654C660.348 605.612 659.619 606.435 659.253 607.436C658.868 608.492 658.88 609.748 658.125 610.577C657.993 610.721 657.835 610.861 657.797 611.052C657.774 611.166 657.798 611.288 657.758 611.397C657.65 611.699 657.157 611.714 657.065 612.021C657.038 612.11 657.053 612.21 657.02 612.297C656.944 612.496 656.682 612.526 656.507 612.645C656.141 612.893 656.215 613.47 655.954 613.828C655.747 614.11 655.358 614.205 655.012 614.157C654.666 614.109 654.35 613.944 654.035 613.792C653.927 613.731 653.807 613.694 653.683 613.682C653.537 613.687 653.396 613.735 653.277 613.821C652.581 614.263 652.255 615.14 652.259 615.968C652.264 616.796 652.549 617.594 652.84 618.368C652.88 618.499 652.945 618.621 653.032 618.726C653.263 618.97 653.665 618.93 653.971 618.795C654.278 618.659 654.556 618.445 654.886 618.386C655.469 618.28 656.039 618.681 656.63 618.648C657.064 618.624 657.447 618.372 657.807 618.128C658.382 617.739 658.967 617.34 659.39 616.788C659.649 616.45 659.838 616.064 660.064 615.703C660.354 615.26 660.672 614.835 661.015 614.432L663.188 611.773C663.71 611.204 664.07 610.506 664.229 609.751C664.435 609.042 664.643 608.325 664.679 607.587C664.709 606.98 664.62 606.373 664.521 605.774C664.424 605.183 664.313 604.586 664.054 604.048C663.581 603.067 662.432 602.256 661.545 603.291Z" fill="#2F2E41"/>
<path id="Vector_63" d="M662.81 592.221C665.436 592.221 667.565 590.092 667.565 587.466C667.565 584.839 665.436 582.71 662.81 582.71C660.183 582.71 658.054 584.839 658.054 587.466C658.054 590.092 660.183 592.221 662.81 592.221Z" fill="#2F2E41"/>
<path id="Vector_64" d="M666.911 591.403C666.296 591.848 665.583 592.139 664.832 592.252C664.081 592.365 663.314 592.296 662.595 592.052C661.876 591.807 661.226 591.394 660.699 590.847C660.173 590.3 659.785 589.634 659.568 588.906C659.65 589.559 659.866 590.187 660.203 590.751C660.54 591.316 660.991 591.804 661.526 592.186C662.061 592.567 662.67 592.834 663.313 592.968C663.957 593.103 664.621 593.102 665.265 592.967C665.908 592.832 666.516 592.565 667.051 592.182C667.586 591.8 668.036 591.311 668.372 590.746C668.709 590.182 668.924 589.553 669.005 588.901C669.087 588.248 669.032 587.586 668.844 586.956C668.951 587.803 668.828 588.662 668.487 589.445C668.147 590.227 667.603 590.904 666.911 591.403V591.403Z" fill="#2F2E41"/>
<path id="Vector_65" d="M658.926 598.007C660.852 598.007 662.413 596.445 662.413 594.519C662.413 592.594 660.852 591.032 658.926 591.032C657 591.032 655.439 592.594 655.439 594.519C655.439 596.445 657 598.007 658.926 598.007Z" fill="#2F2E41"/>
<path id="Vector_66" d="M655.994 595.629C657.701 595.629 659.085 594.547 659.085 593.212C659.085 591.877 657.701 590.794 655.994 590.794C654.287 590.794 652.903 591.877 652.903 593.212C652.903 594.547 654.287 595.629 655.994 595.629Z" fill="#2F2E41"/>
<path id="Vector_67" d="M657.181 597.563C657.389 597.394 657.352 597.004 657.098 596.692C656.845 596.38 656.471 596.265 656.263 596.434C656.055 596.603 656.092 596.992 656.346 597.304C656.599 597.616 656.973 597.732 657.181 597.563Z" fill="#FBBEBE"/>
<path id="Vector_68" d="M653.328 627.852C653.328 629.542 652.324 630.132 651.085 630.132C651.056 630.132 651.027 630.131 650.999 630.13C650.942 630.129 650.885 630.127 650.828 630.123C649.71 630.044 648.842 629.423 648.842 627.852C648.842 626.227 650.919 624.175 651.076 624.023L651.076 624.023C651.082 624.017 651.085 624.014 651.085 624.014C651.085 624.014 653.328 626.163 653.328 627.852Z" fill="#BEDD8C"/>
<path id="Vector_69" d="M651.003 629.873L651.824 628.727L651.001 629.999L650.999 630.13C650.942 630.129 650.885 630.127 650.828 630.123L650.917 628.433L650.916 628.419L650.918 628.417L650.926 628.257L650.101 626.982L650.929 628.138L650.931 628.171L650.997 626.894L650.291 625.577L651.006 626.67L651.076 624.023L651.076 624.014V624.023L651.064 626.11L651.767 625.283L651.061 626.29L651.043 627.433L651.699 626.336L651.04 627.602L651.03 628.237L651.982 626.71L651.026 628.459L651.003 629.873Z" fill="#9AB967"/>
</g>
<g id="bench">
<path id="Vector_70" d="M350.79 536.133C350.79 537.606 352.396 538.915 353.869 538.915C355.341 538.915 356.123 537.606 356.123 536.133C356.123 535.426 355.842 534.748 355.342 534.248C354.842 533.747 354.164 533.467 353.457 533.467C352.75 533.467 352.071 533.747 351.571 534.248C351.071 534.748 350.79 535.426 350.79 536.133H350.79Z" fill="#2F2E41"/>
<path id="Vector_71" d="M351.646 550.228L356.598 550.037L356.884 544.895H351.17L351.646 550.228Z" fill="#FFB8B8"/>
<path id="Vector_72" d="M348.503 553.757C348.589 553.679 348.657 553.583 348.702 553.476C348.747 553.369 348.768 553.254 348.763 553.138C348.759 553.022 348.729 552.909 348.676 552.806C348.623 552.702 348.548 552.612 348.456 552.541L349.355 549.87L347.939 550.244L347.302 552.724C347.193 552.886 347.147 553.082 347.173 553.275C347.199 553.469 347.296 553.646 347.444 553.773C347.592 553.901 347.781 553.969 347.976 553.966C348.172 553.963 348.359 553.889 348.503 553.757V553.757Z" fill="#FFB6B6"/>
<path id="Vector_73" d="M353.864 538.915C354.906 538.915 355.75 538.071 355.75 537.029C355.75 535.988 354.906 535.143 353.864 535.143C352.823 535.143 351.978 535.988 351.978 537.029C351.978 538.071 352.823 538.915 353.864 538.915Z" fill="#FFB8B8"/>
<path id="Vector_74" d="M353.91 536.84L352.533 536.803C352.5 536.802 352.467 536.792 352.438 536.775C352.409 536.757 352.385 536.732 352.369 536.702L351.909 535.848C351.887 535.808 351.881 535.762 351.89 535.718C351.899 535.673 351.924 535.633 351.96 535.605L353.761 534.197C353.784 534.179 353.81 534.167 353.838 534.161C353.866 534.154 353.895 534.154 353.923 534.161L355.378 534.492C355.411 534.5 355.442 534.516 355.467 534.54C355.492 534.564 355.51 534.593 355.52 534.626L356.09 536.589C356.098 536.618 356.1 536.649 356.094 536.679C356.088 536.709 356.075 536.738 356.056 536.762C356.037 536.786 356.012 536.805 355.984 536.818C355.957 536.83 355.926 536.836 355.895 536.835L355.182 536.799C355.143 536.797 355.106 536.783 355.075 536.76C355.044 536.736 355.021 536.704 355.009 536.667L354.979 536.577C354.978 536.572 354.974 536.568 354.97 536.565C354.965 536.563 354.96 536.562 354.955 536.562C354.95 536.563 354.945 536.566 354.941 536.57C354.938 536.574 354.936 536.579 354.936 536.584C354.936 536.61 354.931 536.636 354.921 536.66C354.91 536.684 354.895 536.706 354.876 536.724C354.857 536.742 354.835 536.756 354.811 536.765C354.786 536.774 354.76 536.778 354.734 536.777L354.498 536.765C354.455 536.763 354.414 536.746 354.382 536.718C354.349 536.69 354.327 536.652 354.319 536.61L354.217 536.098C354.216 536.093 354.213 536.088 354.209 536.085C354.205 536.081 354.2 536.08 354.194 536.08C354.189 536.08 354.184 536.082 354.18 536.086C354.176 536.09 354.174 536.094 354.173 536.1L354.107 536.67C354.101 536.716 354.079 536.76 354.044 536.791C354.009 536.823 353.963 536.84 353.916 536.84L353.91 536.84Z" fill="#2F2E41"/>
<path id="Vector_75" d="M352.536 539.397L354.975 539.43L355.768 540.438L357.046 540.739L357.378 542.658C357.544 543.617 357.368 544.224 356.88 545.067L356.821 546.724L356.886 546.842C356.918 546.9 356.927 546.967 356.912 547.032C356.897 547.096 356.859 547.153 356.805 547.191V547.191C356.851 547.306 356.856 547.434 356.82 547.552L356.789 547.656C356.789 547.656 356.698 548.383 351.549 547.619C351.44 547.602 351.339 547.551 351.262 547.472C351.184 547.394 351.135 547.292 351.12 547.183V547.183C351.065 547.126 351.028 547.054 351.015 546.975C351.002 546.897 351.015 546.817 351.05 546.746L351.061 546.725L351.008 546.663C350.949 546.593 350.915 546.506 350.911 546.416C350.908 546.325 350.934 546.235 350.987 546.161V546.161L350.247 540.868L351.776 540.392L352.536 539.397Z" fill="#2F2E41"/>
<path id="Vector_76" d="M350.858 541.375L350.247 540.868C350.247 540.868 349.705 541.029 349.326 542.098C348.947 543.167 347.646 551.275 347.646 551.275L349.17 550.513L351.331 544.556L350.858 541.375Z" fill="#2F2E41"/>
<path id="Vector_77" d="M364.414 550.008C364.299 550.025 364.182 550.017 364.071 549.983C363.96 549.95 363.857 549.893 363.77 549.816C363.684 549.74 363.615 549.644 363.569 549.538C363.523 549.432 363.5 549.316 363.504 549.2L360.868 548.201L362.056 547.343L364.377 548.424C364.571 548.443 364.752 548.532 364.885 548.675C365.018 548.818 365.094 549.004 365.099 549.199C365.103 549.395 365.036 549.585 364.91 549.734C364.783 549.883 364.607 549.98 364.414 550.008V550.008Z" fill="#FFB6B6"/>
<path id="Vector_78" d="M356.338 541.329L356.752 540.652C356.752 540.652 357.317 540.628 358.021 541.517C358.382 541.973 360.722 545.882 360.722 545.882L362.886 547.686L361.114 548.318L359.027 547.432L356.686 543.573L356.338 541.329Z" fill="#2F2E41"/>
<path id="Vector_79" d="M356.404 573.621H357.583L358.143 569.075L356.404 569.076L356.404 573.621Z" fill="#FFB6B6"/>
<path id="Vector_80" d="M346.089 572.888L347.229 573.185L348.918 568.928L347.235 568.49L346.089 572.888Z" fill="#FFB6B6"/>
<path id="Vector_81" d="M356.112 573.039L357.975 572.928V573.726L359.746 574.949C359.833 575.01 359.899 575.097 359.934 575.197C359.969 575.298 359.97 575.407 359.939 575.508C359.907 575.61 359.844 575.698 359.758 575.761C359.672 575.824 359.569 575.858 359.463 575.858H357.245L356.863 575.069L356.713 575.858H355.877L356.112 573.039Z" fill="#2F2E41"/>
<path id="Vector_82" d="M345.849 572.225L347.68 572.587L347.478 573.359L348.883 574.99C348.953 575.07 348.995 575.171 349.003 575.277C349.011 575.383 348.985 575.489 348.929 575.579C348.873 575.669 348.789 575.739 348.691 575.778C348.592 575.818 348.483 575.824 348.38 575.798L346.234 575.238L346.063 574.378L345.72 575.104L344.911 574.893L345.849 572.225Z" fill="#2F2E41"/>
<path id="Vector_83" d="M346.233 570.03L349.687 562.93L349.959 554.527C349.211 553.139 351.412 550.076 351.412 550.076V548.89L356.791 549.904C357.891 552.905 358.424 556.083 358.364 559.279L358.147 570.764H358.215C358.271 570.764 358.327 570.775 358.378 570.797C358.43 570.818 358.477 570.849 358.517 570.889C358.556 570.928 358.588 570.975 358.609 571.027C358.631 571.079 358.642 571.134 358.642 571.19C358.642 571.246 358.631 571.301 358.609 571.353C358.588 571.404 358.556 571.451 358.517 571.491C358.477 571.53 358.43 571.562 358.378 571.583C358.327 571.604 358.271 571.615 358.215 571.615H356.089C356.033 571.615 355.977 571.604 355.926 571.583C355.874 571.562 355.827 571.53 355.787 571.491C355.748 571.451 355.716 571.404 355.695 571.353C355.673 571.301 355.662 571.246 355.662 571.19C355.662 571.134 355.673 571.079 355.695 571.027C355.716 570.975 355.748 570.928 355.787 570.889C355.827 570.849 355.874 570.818 355.926 570.797C355.977 570.775 356.033 570.764 356.089 570.764H356.143L354.617 556.152L352.841 563.363L348.551 570.002C348.66 570.011 348.762 570.061 348.835 570.143C348.908 570.226 348.946 570.333 348.942 570.442C348.938 570.552 348.891 570.656 348.812 570.732C348.732 570.808 348.627 570.85 348.517 570.85H346.39C346.291 570.85 346.195 570.815 346.119 570.752C346.043 570.689 345.991 570.602 345.972 570.504C345.954 570.407 345.97 570.307 346.017 570.22C346.065 570.133 346.141 570.066 346.233 570.03V570.03Z" fill="#2F2E41"/>
<path id="Vector_84" d="M346.186 536.41C346.981 535.633 347.481 534.61 348.139 533.714C348.797 532.818 349.724 531.997 350.835 531.947C351.205 531.92 351.574 532.016 351.883 532.22C352.035 532.324 352.158 532.466 352.239 532.632C352.32 532.798 352.357 532.982 352.345 533.166C352.463 532.836 352.987 532.762 353.191 533.046C353.395 533.33 353.158 533.803 352.808 533.809L352.774 533.674C352.601 533.934 352.378 534.157 352.118 534.329C351.858 534.502 351.566 534.621 351.26 534.679C351.195 534.691 351.128 534.685 351.065 534.663C351.003 534.641 350.948 534.604 350.904 534.554C350.861 534.504 350.831 534.444 350.818 534.379C350.805 534.314 350.809 534.247 350.829 534.185C349.629 534.423 350.01 536.661 349.296 537.655C348.583 538.649 346.544 538.553 345.341 538.776C344.179 538.991 343.049 538.346 342.043 537.727C342.789 537.84 343.55 537.78 344.268 537.552C344.987 537.323 345.643 536.933 346.186 536.41V536.41Z" fill="#2F2E41"/>
<path id="Vector_85" d="M391.085 563.433L387.465 561.835V560.462L388.755 560.455C388.955 560.454 389.15 560.39 389.312 560.272C389.474 560.155 389.595 559.99 389.659 559.8L390.565 557.08C390.613 556.936 390.626 556.783 390.603 556.633C390.58 556.483 390.522 556.34 390.433 556.217C390.345 556.094 390.228 555.993 390.093 555.924C389.958 555.855 389.808 555.819 389.656 555.819H387.465V554.541H390.216C390.432 554.541 390.643 554.468 390.813 554.333C390.982 554.197 391.101 554.009 391.15 553.797L391.774 551.082C391.806 550.942 391.806 550.796 391.774 550.655C391.743 550.515 391.679 550.383 391.59 550.27C391.5 550.158 391.386 550.067 391.256 550.004C391.126 549.942 390.984 549.909 390.84 549.909H387.465V549.59C387.465 549.42 387.397 549.258 387.278 549.138C387.158 549.018 386.995 548.951 386.826 548.951C386.656 548.951 386.494 549.018 386.374 549.138C386.254 549.258 386.187 549.42 386.187 549.59V549.909H363.559V549.59C363.559 549.42 363.492 549.258 363.372 549.138C363.252 549.018 363.089 548.951 362.92 548.951C362.75 548.951 362.588 549.018 362.468 549.138C362.348 549.258 362.281 549.42 362.281 549.59V549.909H359.598C359.454 549.909 359.312 549.942 359.182 550.004C359.052 550.067 358.938 550.158 358.848 550.27C358.759 550.383 358.695 550.515 358.663 550.655C358.632 550.796 358.632 550.942 358.664 551.082L359.288 553.797C359.337 554.009 359.456 554.197 359.625 554.333C359.795 554.468 360.005 554.541 360.222 554.541H362.281V555.819H360.782C360.631 555.819 360.482 555.855 360.347 555.923C360.213 555.992 360.096 556.091 360.007 556.213C359.918 556.335 359.859 556.477 359.836 556.626C359.812 556.775 359.823 556.927 359.87 557.071L360.795 559.942C360.857 560.136 360.98 560.305 361.145 560.425C361.31 560.544 361.509 560.608 361.712 560.607L362.281 560.604V561.835L359.353 563.433C359.227 563.433 359.102 563.457 358.986 563.506C358.87 563.554 358.764 563.624 358.675 563.713C358.586 563.802 358.515 563.908 358.467 564.024C358.419 564.14 358.394 564.265 358.394 564.391V564.391C358.394 564.645 358.495 564.889 358.675 565.069C358.855 565.248 359.099 565.349 359.353 565.349H362.281V572.377C362.281 572.547 362.348 572.709 362.468 572.829C362.588 572.949 362.75 573.016 362.92 573.016C363.089 573.016 363.252 572.949 363.372 572.829C363.492 572.709 363.559 572.547 363.559 572.377V565.349H386.187V572.377C386.187 572.547 386.254 572.709 386.374 572.829C386.494 572.949 386.656 573.016 386.826 573.016C386.995 573.016 387.158 572.949 387.278 572.829C387.397 572.709 387.465 572.547 387.465 572.377V565.349H391.085C391.339 565.349 391.583 565.248 391.763 565.069C391.943 564.889 392.044 564.645 392.044 564.391C392.044 564.265 392.019 564.14 391.971 564.024C391.922 563.908 391.852 563.802 391.763 563.713C391.674 563.624 391.568 563.554 391.452 563.506C391.336 563.457 391.211 563.433 391.085 563.433ZM363.559 554.541H386.187V555.819H363.559V554.541ZM363.559 561.835V560.596L386.187 560.469V561.835L363.559 561.835Z" fill="#3F3D56"/>
</g>
<g id="man_dog">
<path id="Vector_86" d="M759.213 668.597C759.164 668.269 759.189 667.933 759.284 667.615C759.379 667.297 759.543 667.003 759.764 666.755C759.985 666.507 760.258 666.311 760.563 666.179C760.868 666.048 761.198 665.985 761.53 665.995L776.084 651.281L778.959 655.3L763.749 668.5C763.695 669.057 763.439 669.574 763.029 669.955C762.619 670.335 762.083 670.552 761.524 670.564C760.965 670.576 760.421 670.382 759.995 670.02C759.569 669.657 759.291 669.151 759.213 668.597V668.597Z" fill="#FFB8B8"/>
<path id="Vector_87" d="M767.199 661.193L769.821 663.811C769.999 663.988 770.239 664.087 770.49 664.088C770.741 664.089 770.982 663.992 771.161 663.817L781.312 653.837C781.663 653.492 781.942 653.081 782.133 652.627C782.324 652.174 782.423 651.687 782.425 651.195C782.426 650.703 782.33 650.215 782.142 649.76C781.954 649.305 781.678 648.892 781.33 648.545C780.981 648.197 780.567 647.922 780.111 647.736C779.656 647.55 779.168 647.455 778.676 647.459C778.183 647.462 777.697 647.563 777.244 647.756C776.791 647.948 776.381 648.229 776.037 648.581L767.19 659.854C767.016 660.034 766.919 660.275 766.921 660.525C766.923 660.776 767.022 661.015 767.199 661.193V661.193Z" fill="#FF8863"/>
<path id="Vector_88" d="M779.134 640.795C776.265 640.795 773.939 638.469 773.939 635.6C773.939 632.731 776.265 630.405 779.134 630.405C782.003 630.405 784.329 632.731 784.329 635.6C784.329 638.469 782.003 640.795 779.134 640.795Z" fill="#FFB8B8"/>
<path id="Vector_89" d="M796.688 698.948L795.373 701.183L786.127 697.173L788.069 693.875L796.688 698.948Z" fill="#FFB8B8"/>
<path id="Vector_90" d="M796.294 697.949L793.704 702.35L793.704 702.35C793.487 702.719 793.345 703.126 793.286 703.549C793.226 703.973 793.251 704.403 793.358 704.817C793.465 705.231 793.653 705.619 793.91 705.961C794.167 706.302 794.489 706.589 794.858 706.806L794.949 706.86L799.19 699.654L796.294 697.949Z" fill="#2F2E41"/>
<path id="Vector_91" d="M781.447 706.999H778.854L777.62 696.997L781.447 696.997L781.447 706.999Z" fill="#FFB8B8"/>
<path id="Vector_92" d="M782.109 706.153L777.002 706.153H777.001C776.574 706.153 776.151 706.237 775.756 706.4C775.361 706.564 775.002 706.804 774.7 707.106C774.398 707.408 774.158 707.767 773.995 708.162C773.831 708.557 773.747 708.98 773.747 709.407V709.513L782.108 709.513L782.109 706.153Z" fill="#2F2E41"/>
<path id="Vector_93" d="M791.873 700.939C792.022 700.939 792.169 700.904 792.302 700.837C792.435 700.77 792.551 700.672 792.639 700.552L795.14 697.155C795.217 697.051 795.271 696.933 795.3 696.808C795.33 696.683 795.334 696.553 795.311 696.426C795.289 696.299 795.241 696.178 795.171 696.071C795.101 695.963 795.009 695.87 794.902 695.799L783.773 688.366L790.488 670.709L776.128 671.894L775.645 687.067C775.599 688.449 775.931 689.817 776.603 691.025C777.275 692.233 778.263 693.236 779.462 693.926L791.397 700.811C791.542 700.895 791.706 700.939 791.873 700.939V700.939Z" fill="#2F2E41"/>
<path id="Vector_94" d="M781.369 704.969C781.615 704.968 781.852 704.872 782.029 704.701C782.206 704.53 782.31 704.297 782.318 704.051L782.845 689.269L776.328 688.926L776.847 703.814C776.854 704.049 776.95 704.274 777.114 704.443C777.278 704.613 777.5 704.715 777.735 704.73L781.304 704.967C781.326 704.968 781.347 704.969 781.369 704.969Z" fill="#2F2E41"/>
<path id="Vector_95" d="M776.651 674.829C778.309 674.829 781.916 672.965 783.926 672.3C784.227 672.54 785.879 673.776 787.808 673.55C788.998 673.41 790.045 672.737 790.921 671.548C792.856 668.922 788.954 659.215 786.609 650.231C785.622 646.451 783.369 642.585 779.548 643.414C778.22 643.707 777.001 644.365 776.026 645.313C775.051 646.262 774.36 647.463 774.03 648.782C773.589 650.58 773.969 652.694 774.246 654.238C774.369 654.757 774.435 655.287 774.444 655.819C774.308 656.908 775.736 673.987 776.222 674.717C776.274 674.794 776.424 674.829 776.651 674.829Z" fill="#FF8863"/>
<path id="Vector_96" d="M780.532 674.86C780.265 674.661 780.046 674.407 779.888 674.115C779.731 673.822 779.639 673.499 779.62 673.167C779.601 672.835 779.655 672.503 779.778 672.195C779.901 671.886 780.091 671.609 780.333 671.381L780.23 650.685L785.104 651.497L783.673 671.585C784.028 672.017 784.212 672.564 784.191 673.123C784.17 673.682 783.944 674.214 783.557 674.617C783.17 675.021 782.648 675.269 782.09 675.313C781.533 675.358 780.978 675.197 780.532 674.86V674.86Z" fill="#FFB8B8"/>
<path id="Vector_97" d="M779.404 663.976H784.655C784.905 663.975 785.146 663.876 785.324 663.699C785.502 663.523 785.604 663.284 785.607 663.033L785.736 648.799C785.74 648.307 785.647 647.819 785.461 647.363C785.276 646.907 785.002 646.492 784.655 646.143C784.309 645.793 783.896 645.516 783.442 645.327C782.987 645.138 782.5 645.041 782.008 645.042C781.516 645.043 781.028 645.141 780.574 645.331C780.12 645.521 779.709 645.799 779.363 646.149C779.017 646.5 778.744 646.915 778.56 647.371C778.375 647.828 778.283 648.316 778.289 648.808L778.453 663.035C778.456 663.285 778.558 663.524 778.736 663.7C778.914 663.876 779.154 663.975 779.404 663.976V663.976Z" fill="#FF8863"/>
<path id="Vector_98" d="M780.457 640.774C781.65 640.744 782.797 640.311 783.712 639.545C784.627 638.778 785.254 637.724 785.492 636.555C785.64 635.635 785.573 634.693 785.298 633.803C784.998 632.789 784.485 631.851 783.793 631.052C783.101 630.254 782.246 629.613 781.285 629.173C780.324 628.733 779.28 628.504 778.223 628.501C777.166 628.499 776.121 628.723 775.158 629.159C774.522 629.447 773.895 629.861 773.604 630.495C773.312 631.13 773.495 632.017 774.132 632.303C774.549 632.49 775.071 632.398 775.441 632.666C775.972 633.051 775.835 633.87 775.598 634.481C775.361 635.092 775.093 635.832 775.49 636.353C775.86 636.839 776.6 636.824 777.183 636.641C777.766 636.458 778.341 636.152 778.949 636.214C779.836 636.305 780.473 637.187 780.59 638.07C780.708 638.953 780.431 639.836 780.157 640.684L780.457 640.774Z" fill="#2F2E41"/>
<path id="Vector_99" d="M760.913 668.477C757.538 667.714 753.715 670.354 753.596 673.898C753.563 674.895 753.855 675.942 754.622 676.62C754.94 676.911 755.326 677.116 755.745 677.215C756.164 677.315 756.602 677.306 757.016 677.188C758.592 676.662 758.676 674.467 757.831 673.294C756.686 671.707 754.42 671.436 752.621 671.625C750.417 671.904 748.329 672.774 746.578 674.141C743.067 676.787 740.832 680.842 739.022 684.759C737.17 688.778 735.823 693.011 735.012 697.362C734.91 697.908 734.816 698.456 734.731 699.005C734.707 699.086 734.653 699.154 734.579 699.194C734.505 699.234 734.419 699.244 734.338 699.221C734.258 699.196 734.191 699.141 734.151 699.068C734.111 698.995 734.101 698.909 734.122 698.828C734.863 694.081 736.231 689.453 738.19 685.066C740.085 680.82 742.474 676.416 746.274 673.583C748.158 672.131 750.407 671.229 752.772 670.977C754.765 670.8 757.125 671.222 758.364 672.955C759.342 674.322 759.243 676.595 757.73 677.547C757.312 677.785 756.841 677.914 756.361 677.924C755.88 677.934 755.405 677.823 754.978 677.603C754.52 677.376 754.116 677.053 753.795 676.655C753.474 676.257 753.244 675.795 753.119 675.299C752.582 673.331 753.398 671.202 754.796 669.795C756.109 668.471 757.893 667.721 759.757 667.709C760.206 667.714 760.653 667.767 761.09 667.868C761.489 667.958 761.311 668.567 760.913 668.477V668.477Z" fill="black"/>
<path id="Vector_100" d="M744.638 707.453L746.735 703.872L744.149 702.357L742.052 705.938V705.938C741.851 706.281 741.795 706.689 741.895 707.074C741.996 707.458 742.245 707.787 742.588 707.988C742.931 708.189 743.339 708.245 743.724 708.145C744.108 708.045 744.437 707.795 744.638 707.453V707.453Z" fill="#FF8863"/>
<path id="Vector_101" d="M751.572 700.01C750.553 700.01 749.728 699.184 749.728 698.166C749.728 697.147 750.553 696.322 751.572 696.322C752.591 696.322 753.416 697.147 753.416 698.166C753.416 699.184 752.591 700.01 751.572 700.01Z" fill="#FF8863"/>
<path id="Vector_102" d="M736.523 707.453L738.621 703.872L736.035 702.357L733.937 705.938C733.737 706.281 733.68 706.689 733.781 707.074C733.881 707.458 734.13 707.787 734.473 707.988C734.816 708.189 735.225 708.245 735.609 708.145C735.994 708.045 736.323 707.795 736.523 707.453V707.453Z" fill="#FF8863"/>
<path id="Vector_103" d="M751.222 701.881C751.22 700.842 750.807 699.846 750.072 699.111C749.338 698.377 748.342 697.963 747.303 697.962H734.897C734.457 697.963 734.036 698.137 733.726 698.448C733.415 698.758 733.241 699.179 733.24 699.619V701.03C733.242 702.295 733.745 703.507 734.639 704.402C735.533 705.296 736.745 705.799 738.01 705.8H747.303C748.342 705.799 749.338 705.386 750.072 704.651C750.807 703.916 751.22 702.92 751.222 701.881V701.881Z" fill="#3F3D56"/>
<path id="Vector_104" d="M748.361 707.914V703.765H745.364V707.914C745.364 708.312 745.522 708.693 745.803 708.974C746.084 709.255 746.465 709.413 746.862 709.413C747.26 709.413 747.641 709.255 747.922 708.974C748.203 708.693 748.361 708.312 748.361 707.914V707.914Z" fill="#3F3D56"/>
<path id="Vector_105" d="M739.664 707.914V703.765H736.667V707.914C736.667 708.312 736.825 708.693 737.106 708.974C737.387 709.255 737.768 709.413 738.166 709.413C738.563 709.413 738.944 709.255 739.225 708.974C739.506 708.693 739.664 708.312 739.664 707.914V707.914Z" fill="#3F3D56"/>
<path id="Vector_106" d="M727.471 691.497C727.165 691.116 726.72 690.873 726.234 690.82C725.748 690.767 725.261 690.909 724.88 691.215C724.499 691.521 724.255 691.966 724.202 692.452C724.148 692.938 724.29 693.425 724.596 693.806L727.627 697.581L730.503 695.271L727.471 691.497Z" fill="#FF8863"/>
<path id="Vector_107" d="M734.774 698.933L732.345 695.909C731.755 695.175 730.897 694.706 729.961 694.604C729.025 694.501 728.086 694.775 727.352 695.363L726.593 695.973C725.718 696.677 725.159 697.699 725.037 698.815C724.915 699.932 725.241 701.051 725.943 701.927L727.944 704.418C728.165 704.693 728.486 704.868 728.836 704.907C729.187 704.945 729.538 704.843 729.813 704.622L734.57 700.802C734.844 700.581 735.02 700.26 735.058 699.91C735.097 699.559 734.994 699.208 734.774 698.933V698.933Z" fill="#3F3D56"/>
<path id="Vector_108" d="M727.11 691.047C726.9 690.785 726.594 690.617 726.259 690.581C725.925 690.544 725.59 690.642 725.328 690.853C725.066 691.063 724.898 691.37 724.861 691.704C724.825 692.038 724.923 692.373 725.133 692.635L728.526 696.859L730.503 695.271L727.11 691.047Z" fill="#3F3D56"/>
<path id="Vector_109" d="M731.97 698.108L726.758 702.294C726.569 702.446 726.412 702.633 726.295 702.845C726.179 703.058 726.106 703.291 726.079 703.532C726.053 703.773 726.074 704.016 726.142 704.249C726.21 704.481 726.323 704.698 726.475 704.887C726.626 705.076 726.814 705.233 727.026 705.349C727.238 705.466 727.472 705.539 727.712 705.565C727.953 705.592 728.197 705.57 728.429 705.502C728.662 705.434 728.879 705.321 729.067 705.17L734.28 700.983L731.97 698.108Z" fill="#3F3D56"/>
<path id="Vector_110" d="M726.251 705.024C725.982 704.689 725.915 704.296 726.101 704.146C726.287 703.997 726.656 704.147 726.926 704.482C727.195 704.817 727.262 705.21 727.076 705.36C726.89 705.509 726.521 705.359 726.251 705.024Z" fill="#FF8863"/>
<path id="Vector_111" d="M778.554 644.36H781.557C781.847 644.36 782.125 644.245 782.33 644.04C782.535 643.836 782.65 643.558 782.65 643.268C782.65 642.979 782.535 642.701 782.33 642.496C782.125 642.291 781.847 642.176 781.557 642.176H778.554C778.264 642.176 777.987 642.291 777.782 642.496C777.577 642.701 777.462 642.979 777.462 643.268C777.462 643.558 777.577 643.836 777.782 644.04C777.987 644.245 778.264 644.36 778.554 644.36Z" fill="#FF8863"/>
</g>
</g>
<g id="transmission_tower">
<g id="Group_2">
<g id="svg_8">
<path id="rect3227" d="M1304.97 131.542H1268.97C1268.87 131.542 1268.79 131.62 1268.79 131.715V278.187C1268.79 278.282 1268.87 278.36 1268.97 278.36H1304.97C1305.07 278.36 1305.15 278.282 1305.15 278.187V131.715C1305.15 131.62 1305.07 131.542 1304.97 131.542Z" fill="#FFAE01" stroke="#3F3D56" stroke-width="5" stroke-linecap="round" stroke-linejoin="round"/>
<path id="rect3229" d="M1247.66 138.533H1220.02C1219.93 138.533 1219.85 138.606 1219.85 138.696V271.206C1219.85 271.295 1219.93 271.368 1220.02 271.368H1247.66C1247.75 271.368 1247.82 271.295 1247.82 271.206V138.696C1247.82 138.606 1247.75 138.533 1247.66 138.533Z" fill="#FFAE01" stroke="#3F3D56" stroke-width="5" stroke-linecap="round" stroke-linejoin="round"/>
<path id="rect3231" d="M1353.92 138.533H1326.28C1326.19 138.533 1326.12 138.606 1326.12 138.695V271.207C1326.12 271.296 1326.19 271.368 1326.28 271.368H1353.92C1354.01 271.368 1354.09 271.296 1354.09 271.207V138.695C1354.09 138.606 1354.01 138.533 1353.92 138.533Z" fill="#FFAE01" stroke="#3F3D56" stroke-width="5" stroke-linecap="round" stroke-linejoin="round"/>
<path id="rect3233" d="M1268.63 194.464H1247.98C1247.89 194.464 1247.82 194.536 1247.82 194.625V215.276C1247.82 215.366 1247.89 215.438 1247.98 215.438H1268.63C1268.72 215.438 1268.79 215.366 1268.79 215.276V194.625C1268.79 194.536 1268.72 194.464 1268.63 194.464Z" fill="#3F3D56" stroke="#3F3D56" stroke-width="5" stroke-linecap="round" stroke-linejoin="round"/>
<path id="rect3235" d="M1325.96 194.464H1305.31C1305.22 194.464 1305.15 194.536 1305.15 194.625V215.276C1305.15 215.366 1305.22 215.438 1305.31 215.438H1325.96C1326.05 215.438 1326.12 215.366 1326.12 215.276V194.625C1326.12 194.536 1326.05 194.464 1325.96 194.464Z" fill="#3F3D56" stroke="#3F3D56" stroke-width="5" stroke-linecap="round" stroke-linejoin="round"/>
</g>
<g id="svg_9">
<path id="rect2451" d="M1309.17 518.86H1264.77C1264.67 518.86 1264.6 518.937 1264.6 519.031V731.225C1264.6 731.32 1264.67 731.396 1264.77 731.396H1309.17C1309.27 731.396 1309.34 731.32 1309.34 731.225V519.031C1309.34 518.937 1309.27 518.86 1309.17 518.86Z" fill="#FFAE01" stroke="#3F3D56" stroke-width="5" stroke-linecap="round" stroke-linejoin="round"/>
<path id="rect3223" d="M1304.98 390.22H1268.96C1268.87 390.22 1268.79 390.297 1268.79 390.391V518.69C1268.79 518.784 1268.87 518.86 1268.96 518.86H1304.98C1305.07 518.86 1305.15 518.784 1305.15 518.69V390.391C1305.15 390.297 1305.07 390.22 1304.98 390.22Z" fill="#FFAE01" stroke="#3F3D56" stroke-width="5" stroke-linecap="round" stroke-linejoin="round"/>
<path id="rect3225" d="M1297.99 278.36H1275.95C1275.86 278.36 1275.78 278.436 1275.78 278.53V390.05C1275.78 390.144 1275.86 390.22 1275.95 390.22H1297.99C1298.08 390.22 1298.16 390.144 1298.16 390.05V278.53C1298.16 278.436 1298.08 278.36 1297.99 278.36Z" fill="#FFAE01" stroke="#3F3D56" stroke-width="5" stroke-linecap="round" stroke-linejoin="round"/>
</g>
</g>
<g id="Group_3">
<g id="g3278">
<path id="path3261" d="M1144.48 228.598C1149.65 260.752 1165.66 278.521 1195.54 277.861" stroke="white" stroke-width="8"/>
<path id="path3263" d="M1101.07 236.137C1109.02 284.463 1130.89 319.789 1187.41 322.778" stroke="white" stroke-width="8"/>
<path id="path3265" d="M1059.64 246.255C1071.36 306.841 1098.93 356.321 1180.64 367.855" stroke="white" stroke-width="8"/>
</g>
<g id="g3273">
<path id="path3267" d="M1431.45 230.734C1422.96 254.87 1411.69 276.24 1381.9 279.08" stroke="white" stroke-width="8"/>
<path id="path3269" d="M1471.27 234.676C1464.44 287.2 1440.49 320.866 1385.83 320.707" stroke="white" stroke-width="8"/>
<path id="path3271" d="M1513.44 245.845C1505.81 316.244 1466.67 355.934 1394.28 363.207" stroke="white" stroke-width="8"/>
</g>
</g>
</g>
<g id="track">
<rect id="background" y="728" width="1920" height="104" fill="url(#paint3_linear_118:38)"/>
<g id="biels">
<path id="Rectangle 14" d="M657.631 735.497H678.402L681.761 809.216H653.874L657.631 735.497Z" fill="black" fill-opacity="0.5"/>
<path id="Rectangle 13" d="M655.519 734.216H676.29L679.649 807.935H651.761L655.519 734.216Z" fill="#461D23"/>
</g>
<g id="biels_2">
<path id="Rectangle 14_2" d="M223.054 735.497H243.826L247.185 809.216H219.297L223.054 735.497Z" fill="black" fill-opacity="0.5"/>
<path id="Rectangle 13_2" d="M220.942 734.216H241.713L245.072 807.935H217.185L220.942 734.216Z" fill="#461D23"/>
</g>
<g id="biels_3">
<path id="Rectangle 14_3" d="M585.201 735.497H605.973L609.332 809.216H581.444L585.201 735.497Z" fill="black" fill-opacity="0.5"/>
<path id="Rectangle 13_3" d="M583.089 734.216H603.86L607.219 807.935H579.332L583.089 734.216Z" fill="#461D23"/>
</g>
<g id="biels_4">
<path id="Rectangle 14_4" d="M150.625 735.497H171.396L174.755 809.216H146.867L150.625 735.497Z" fill="black" fill-opacity="0.5"/>
<path id="Rectangle 13_4" d="M148.512 734.216H169.284L172.643 807.935H144.755L148.512 734.216Z" fill="#461D23"/>
</g>
<g id="biels_5">
<path id="Rectangle 14_5" d="M78.1953 735.497H98.9669L102.326 809.216H74.438L78.1953 735.497Z" fill="black" fill-opacity="0.5"/>
<path id="Rectangle 13_5" d="M76.083 734.216H96.8546L100.213 807.935H72.3257L76.083 734.216Z" fill="#461D23"/>
</g>
<g id="biels_6">
<path id="Rectangle 14_6" d="M5.76614 735.497H26.5377L29.8965 809.216H2.00879L5.76614 735.497Z" fill="black" fill-opacity="0.5"/>
<path id="Rectangle 13_6" d="M3.65384 734.216H24.4254L27.7842 807.935H-0.103516L3.65384 734.216Z" fill="#461D23"/>
</g>
<g id="biels_7">
<path id="Rectangle 14_7" d="M947.349 735.497H968.12L971.479 809.216H943.591L947.349 735.497Z" fill="black" fill-opacity="0.5"/>
<path id="Rectangle 13_7" d="M945.236 734.216H966.008L969.367 807.935H941.479L945.236 734.216Z" fill="#461D23"/>
</g>
<g id="biels_8">
<path id="Rectangle 14_8" d="M512.772 735.497H533.543L536.902 809.216H509.014L512.772 735.497Z" fill="black" fill-opacity="0.5"/>
<path id="Rectangle 13_8" d="M510.659 734.216H531.431L534.79 807.935H506.902L510.659 734.216Z" fill="#461D23"/>
</g>
<g id="biels_9">
<path id="Rectangle 14_9" d="M1237.07 735.497H1257.84L1261.2 809.216H1233.31L1237.07 735.497Z" fill="black" fill-opacity="0.5"/>
<path id="Rectangle 13_9" d="M1234.95 734.216H1255.73L1259.08 807.935H1231.2L1234.95 734.216Z" fill="#461D23"/>
</g>
<g id="biels_10">
<path id="Rectangle 14_10" d="M1526.78 735.497H1547.56L1550.91 809.216H1523.03L1526.78 735.497Z" fill="black" fill-opacity="0.5"/>
<path id="Rectangle 13_10" d="M1524.67 734.216H1545.44L1548.8 807.935H1520.91L1524.67 734.216Z" fill="#461D23"/>
</g>
<g id="biels_11">
<path id="Rectangle 14_11" d="M802.49 735.497H823.261L826.62 809.216H798.732L802.49 735.497Z" fill="black" fill-opacity="0.5"/>
<path id="Rectangle 13_11" d="M800.377 734.216H821.149L824.508 807.935H796.62L800.377 734.216Z" fill="#461D23"/>
</g>
<g id="biels_12">
<path id="Rectangle 14_12" d="M367.913 735.497H388.685L392.043 809.216H364.156L367.913 735.497Z" fill="black" fill-opacity="0.5"/>
<path id="Rectangle 13_12" d="M365.801 734.216H386.572L389.931 807.935H362.043L365.801 734.216Z" fill="#461D23"/>
</g>
<g id="biels_13">
<path id="Rectangle 14_13" d="M1092.21 735.497H1112.98L1116.34 809.216H1088.45L1092.21 735.497Z" fill="black" fill-opacity="0.5"/>
<path id="Rectangle 13_13" d="M1090.1 734.216H1110.87L1114.23 807.935H1086.34L1090.1 734.216Z" fill="#461D23"/>
</g>
<g id="biels_14">
<path id="Rectangle 14_14" d="M1381.93 735.497H1402.7L1406.06 809.216H1378.17L1381.93 735.497Z" fill="black" fill-opacity="0.5"/>
<path id="Rectangle 13_14" d="M1379.81 734.216H1400.58L1403.94 807.935H1376.06L1379.81 734.216Z" fill="#461D23"/>
</g>
<g id="biels_15">
<path id="Rectangle 14_15" d="M1671.64 735.497H1692.41L1695.77 809.216H1667.89L1671.64 735.497Z" fill="black" fill-opacity="0.5"/>
<path id="Rectangle 13_15" d="M1669.53 734.216H1690.3L1693.66 807.935H1665.77L1669.53 734.216Z" fill="#461D23"/>
</g>
<g id="biels_16">
<path id="Rectangle 14_16" d="M730.06 737.247H750.832L754.19 810.966H726.303L730.06 737.247Z" fill="black" fill-opacity="0.5"/>
<path id="Rectangle 13_16" d="M727.948 735.966H748.719L752.078 809.685H724.19L727.948 735.966Z" fill="#461D23"/>
</g>
<g id="biels_17">
<path id="Rectangle 14_17" d="M295.483 737.247H316.255L319.614 810.966H291.726L295.483 737.247Z" fill="black" fill-opacity="0.5"/>
<path id="Rectangle 13_17" d="M293.371 735.966H314.143L317.501 809.685H289.614L293.371 735.966Z" fill="#461D23"/>
</g>
<g id="biels_18">
<path id="Rectangle 14_18" d="M1019.78 737.247H1040.55L1043.91 810.966H1016.02L1019.78 737.247Z" fill="black" fill-opacity="0.5"/>
<path id="Rectangle 13_18" d="M1017.67 735.966H1038.44L1041.8 809.685H1013.91L1017.67 735.966Z" fill="#461D23"/>
</g>
<g id="biels_19">
<path id="Rectangle 14_19" d="M1309.5 737.247H1330.27L1333.63 810.966H1305.74L1309.5 737.247Z" fill="black" fill-opacity="0.5"/>
<path id="Rectangle 13_19" d="M1307.38 735.966H1328.16L1331.51 809.685H1303.63L1307.38 735.966Z" fill="#461D23"/>
</g>
<g id="biels_20">
<path id="Rectangle 14_20" d="M1599.21 737.247H1619.99L1623.34 810.966H1595.46L1599.21 737.247Z" fill="black" fill-opacity="0.5"/>
<path id="Rectangle 13_20" d="M1597.1 735.966H1617.87L1621.23 809.685H1593.34L1597.1 735.966Z" fill="#461D23"/>
</g>
<g id="biels_21">
<path id="Rectangle 14_21" d="M874.919 737.247H895.69L899.049 810.966H871.161L874.919 737.247Z" fill="black" fill-opacity="0.5"/>
<path id="Rectangle 13_21" d="M872.806 735.966H893.578L896.937 809.685H869.049L872.806 735.966Z" fill="#461D23"/>
</g>
<g id="biels_22">
<path id="Rectangle 14_22" d="M440.342 737.247H461.114L464.472 810.966H436.585L440.342 737.247Z" fill="black" fill-opacity="0.5"/>
<path id="Rectangle 13_22" d="M438.23 735.966H459.001L462.36 809.685H434.472L438.23 735.966Z" fill="#461D23"/>
</g>
<g id="biels_23">
<path id="Rectangle 14_23" d="M1164.64 737.247H1185.41L1188.77 810.966H1160.88L1164.64 737.247Z" fill="black" fill-opacity="0.5"/>
<path id="Rectangle 13_23" d="M1162.52 735.966H1183.3L1186.66 809.685H1158.77L1162.52 735.966Z" fill="#461D23"/>
</g>
<g id="biels_24">
<path id="Rectangle 14_24" d="M1454.35 737.247H1475.13L1478.49 810.966H1450.6L1454.35 737.247Z" fill="black" fill-opacity="0.5"/>
<path id="Rectangle 13_24" d="M1452.24 735.966H1473.01L1476.37 809.685H1448.48L1452.24 735.966Z" fill="#461D23"/>
</g>
<g id="biels_25">
<path id="Rectangle 14_25" d="M1744.07 737.247H1764.84L1768.2 810.966H1740.31L1744.07 737.247Z" fill="black" fill-opacity="0.5"/>
<path id="Rectangle 13_25" d="M1741.96 735.966H1762.73L1766.09 809.685H1738.2L1741.96 735.966Z" fill="#461D23"/>
</g>
<g id="biels_26">
<path id="Rectangle 14_26" d="M1816.5 737.247H1837.27L1840.63 810.966H1812.74L1816.5 737.247Z" fill="black" fill-opacity="0.5"/>
<path id="Rectangle 13_26" d="M1814.39 735.966H1835.16L1838.52 809.685H1810.63L1814.39 735.966Z" fill="#461D23"/>
</g>
<g id="biels_27">
<path id="Rectangle 14_27" d="M1888.87 737.247H1909.64L1913 810.966H1885.11L1888.87 737.247Z" fill="black" fill-opacity="0.5"/>
<path id="Rectangle 13_27" d="M1886.76 735.966H1907.53L1910.89 809.685H1883L1886.76 735.966Z" fill="#461D23"/>
</g>
<g id="track_2">
<g id="track_3">
<rect id="Rectangle 12" y="743.833" width="1920" height="12" fill="#C4C4C4"/>
<rect id="Rectangle 13_28" y="747.433" width="1920" height="8" fill="black" fill-opacity="0.5"/>
</g>
<g id="track_4">
<rect id="Rectangle 10" y="778.362" width="1920" height="15" fill="#C4C4C4"/>
<rect id="Rectangle 14_28" y="783.362" width="1920" height="10" fill="black" fill-opacity="0.5"/>
</g>
</g>
</g>
<rect id="grass" y="832" width="1920" height="248" fill="url(#paint4_linear_118:38)"/>
<g id="trees_2">
<g id="tree_2" filter="url(#filter3_d_118:38)">
<path id="Vector_112" d="M156.472 658.371C157.181 657.58 157.886 656.789 158.601 655.998C164.233 649.769 170.276 643.613 178.01 640.042C181.698 638.285 185.724 637.352 189.808 637.307C194.03 637.321 198.157 638.428 202.058 639.979C203.902 640.715 205.706 641.552 207.482 642.442C209.512 643.464 211.505 644.553 213.489 645.651C217.214 647.713 220.891 649.864 224.519 652.106C231.738 656.568 238.73 661.37 245.497 666.512C249.005 669.179 252.44 671.934 255.803 674.775C258.931 677.415 261.996 680.126 264.997 682.907C265.639 683.499 266.598 682.541 265.956 681.949C265.165 681.212 264.365 680.48 263.565 679.757C261.304 677.713 259.008 675.709 256.676 673.745C252.422 670.156 248.059 666.705 243.585 663.393C236.628 658.24 229.432 653.437 221.997 648.983C218.281 646.759 214.514 644.628 210.696 642.591C209.543 641.976 208.377 641.375 207.197 640.806C204.52 639.455 201.739 638.323 198.88 637.42C194.83 636.11 190.546 635.689 186.318 636.186C182.237 636.78 178.304 638.14 174.729 640.195C167.135 644.44 161.245 651.003 155.513 657.409C154.934 658.059 155.888 659.022 156.472 658.371Z" fill="#E4E4E4"/>
<path id="Vector_113" d="M180.404 647.879C189.651 643.127 201.494 644.057 209.991 649.995C193.783 652.792 177.751 656.533 161.98 661.201C168.529 657.363 173.652 651.349 180.404 647.879Z" fill="#F2F2F2"/>
<path id="Vector_114" d="M210.084 649.979L211.864 651.426C211.262 650.92 210.636 650.445 209.993 649.995C210.023 649.99 210.054 649.984 210.084 649.979Z" fill="#F2F2F2"/>
<path id="Vector_115" d="M253.938 924.328C253.487 924.542 252.99 924.641 252.491 924.616C251.993 924.59 251.508 924.442 251.081 924.183C250.863 924.049 250.685 924.405 250.903 924.538C251.376 924.822 251.911 924.985 252.462 925.014C253.013 925.044 253.563 924.937 254.063 924.705C254.112 924.687 254.152 924.651 254.176 924.605C254.199 924.558 254.204 924.504 254.189 924.454C254.173 924.404 254.137 924.363 254.09 924.339C254.043 924.316 253.988 924.312 253.938 924.328V924.328Z" fill="white"/>
<path id="Vector_116" d="M55.6629 670.633C57.5691 667.103 57.8352 662.478 55.4947 659.22C54.3371 663.426 51.7292 667.087 48.1324 669.555C46.7418 670.501 45.0966 671.41 44.6209 673.023C44.3706 674.052 44.5248 675.137 45.0516 676.056C45.5775 676.962 46.2173 677.798 46.9555 678.541L47.0229 678.794C50.4737 676.749 53.7567 674.162 55.6629 670.633Z" fill="#9AB967"/>
<path id="Vector_117" d="M225.211 855.222C241.724 855.222 257.693 849.325 270.243 838.593C274.429 835.01 278.89 828.78 283.5 820.078C286.443 814.472 288.091 808.279 288.323 801.952C288.555 795.626 287.366 789.328 284.843 783.522C287.275 785.996 289.965 788.202 292.867 790.103L294.334 791.079L294.419 789.32C294.475 788.176 294.503 787.036 294.503 785.931C294.508 779.462 293.615 773.022 291.85 766.798C283.844 738.659 282.475 708.441 287.781 676.982C288.691 671.568 289.148 666.088 289.148 660.598C289.148 606.761 245.34 562.961 191.492 562.961C170.962 562.932 150.946 569.385 134.298 581.399C117.649 593.414 105.219 610.377 98.7769 629.871L98.4824 630.76L99.3501 631.111C103.793 632.978 108.472 634.222 113.255 634.809C108.156 635.849 102.952 636.285 97.7505 636.108L96.944 636.08L96.7475 636.864C94.8127 644.627 93.835 652.598 93.8362 660.598L93.8398 661.463C93.8578 667.54 92.5949 673.553 90.1333 679.109C87.6718 684.665 84.0669 689.64 79.5537 693.709C72.4249 700.209 66.7284 708.123 62.8274 716.946C58.9264 725.769 56.9065 735.309 56.8964 744.956C56.8964 756.369 64.6535 771.351 71.161 781.91C72.8103 784.599 75.0472 786.88 77.7039 788.582C80.3606 790.284 83.3681 791.362 86.5009 791.735C89.4682 792.109 92.4815 791.827 95.3275 790.908C98.1735 789.988 100.783 788.454 102.97 786.415C99.8901 792.608 95.8762 798.291 91.0691 803.264L90.1812 804.179L91.2836 804.822C101.878 810.999 113.923 814.252 126.187 814.247L126.905 814.246C145.524 814.246 163.197 821.459 175.393 834.036C181.868 840.707 189.61 846.017 198.165 849.655C206.72 853.293 215.915 855.186 225.211 855.222V855.222Z" fill="#9AB967"/>
<path id="Vector_118" d="M249.647 963.764C249.947 963.764 250.237 963.655 250.463 963.459C250.689 963.262 250.837 962.99 250.879 962.693C250.932 962.322 256.118 924.922 251.461 875.216C247.16 829.312 233.347 763.194 191.971 708.892C191.871 708.762 191.748 708.652 191.606 708.569C191.465 708.487 191.308 708.433 191.146 708.411C190.984 708.389 190.818 708.399 190.66 708.441C190.502 708.482 190.353 708.555 190.223 708.654C190.092 708.754 189.983 708.878 189.901 709.019C189.818 709.161 189.765 709.318 189.743 709.48C189.721 709.642 189.732 709.807 189.774 709.966C189.816 710.124 189.889 710.273 189.988 710.403C231.007 764.236 244.708 829.869 248.979 875.449C253.609 924.865 248.464 961.973 248.412 962.342C248.387 962.519 248.4 962.699 248.451 962.87C248.501 963.042 248.588 963.2 248.705 963.335C248.822 963.47 248.967 963.578 249.13 963.652C249.292 963.726 249.469 963.764 249.647 963.764H249.647Z" fill="#3F3D56"/>
<path id="Vector_119" d="M228.962 780.695C229.226 780.695 229.482 780.612 229.695 780.457C229.908 780.302 230.067 780.084 230.148 779.834C230.23 779.584 230.23 779.314 230.149 779.064C230.067 778.813 229.909 778.595 229.696 778.44C229.546 778.331 214.409 767.425 191.78 759.139C170.861 751.481 139.051 744.538 106.303 754.96C106.146 755.009 106 755.088 105.874 755.194C105.748 755.299 105.644 755.428 105.568 755.574C105.492 755.72 105.446 755.879 105.432 756.043C105.418 756.206 105.436 756.371 105.486 756.528C105.536 756.684 105.616 756.829 105.722 756.955C105.828 757.08 105.958 757.183 106.104 757.258C106.25 757.333 106.41 757.379 106.574 757.392C106.737 757.405 106.902 757.386 107.058 757.335C139.136 747.126 170.369 753.955 190.923 761.48C213.229 769.647 228.083 780.349 228.231 780.456C228.443 780.611 228.7 780.695 228.962 780.695Z" fill="#3F3D56"/>
<path id="Vector_120" d="M283.959 889.068C285.865 885.539 286.131 880.913 283.791 877.655C282.633 881.861 280.025 885.522 276.428 887.99C275.038 888.936 273.393 889.845 272.917 891.458C272.667 892.487 272.821 893.572 273.348 894.491C273.874 895.397 274.513 896.233 275.252 896.976L275.319 897.229C278.77 895.184 282.053 892.597 283.959 889.068Z" fill="#9AB967"/>
</g>
<g id="bush_3" filter="url(#filter4_d_118:38)">
<path id="Vector_121" d="M61.8647 887.647C61.8373 944.132 95.4081 963.869 136.828 963.889C137.79 963.889 138.747 963.879 139.7 963.858C141.62 963.818 143.519 963.731 145.399 963.599C182.783 960.97 211.839 940.251 211.865 887.719C211.891 833.356 142.444 764.716 137.235 759.64C137.231 759.64 137.231 759.64 137.226 759.636C137.028 759.442 136.927 759.346 136.927 759.346C136.927 759.346 61.8921 831.165 61.8647 887.647Z" fill="#BEDD8C"/>
<path id="Vector_122" d="M139.561 955.25L112.15 916.91L139.628 959.457L139.7 963.858C141.619 963.818 143.519 963.731 145.399 963.599L142.471 907.088L142.494 906.651L142.444 906.568L142.165 901.228L169.755 858.602L142.085 897.228L142.015 898.36L139.803 855.664L163.425 811.614L139.517 848.161L137.235 759.64L137.226 759.346L137.226 759.636L137.579 829.444L114.102 801.758L137.677 835.455L138.28 873.685L116.354 836.987L138.365 879.306L138.7 900.564L106.88 849.48L138.82 907.979L139.561 955.25Z" fill="#3F3D56"/>
</g>
<g id="bush_4" filter="url(#filter5_d_118:38)">
<path id="Vector_123" d="M244.504 914.172C244.485 951.829 266.866 964.987 294.479 965C295.12 965 295.759 964.993 296.394 964.979C297.674 964.952 298.94 964.895 300.193 964.806C325.116 963.054 344.487 949.241 344.504 914.22C344.521 877.978 298.223 832.218 294.751 828.834C294.748 828.834 294.748 828.834 294.745 828.831C294.613 828.702 294.545 828.638 294.545 828.638C294.545 828.638 244.522 876.517 244.504 914.172Z" fill="#BEDD8C"/>
<path id="Vector_124" d="M296.301 959.241L278.026 933.681L296.346 962.045L296.393 964.979C297.673 964.952 298.939 964.895 300.192 964.806L298.241 927.133L298.256 926.841L298.222 926.786L298.037 923.226L316.43 894.809L297.983 920.559L297.937 921.314L296.462 892.85L312.21 863.483L296.271 887.848L294.75 828.834L294.744 828.638L294.744 828.831L294.979 875.37L279.328 856.912L295.045 879.377L295.447 904.864L280.829 880.399L295.503 908.611L295.726 922.783L274.513 888.727L295.807 927.727L296.301 959.241Z" fill="#3F3D56"/>
</g>
</g>
<g id="bush_5">
<path id="Vector_125" d="M1021.04 994.917H754.178C754.178 994.917 748.768 915.579 780.774 914.677C812.78 913.775 809.174 949.838 849.294 900.252C889.414 850.665 938.099 853.37 944.41 882.671C950.721 911.972 932.239 935.413 966.048 928.201C999.857 920.988 1048.54 939.921 1021.04 994.917Z" fill="#44A34E"/>
<path id="Vector_126" d="M883.106 994.935L882.205 994.899C884.306 942.663 895.246 909.101 904.053 890.145C913.616 869.561 922.832 861.229 922.924 861.147L923.523 861.821C923.432 861.902 914.324 870.151 904.838 890.595C896.079 909.472 885.199 942.896 883.106 994.935Z" fill="#F2F2F2"/>
<path id="Vector_127" d="M979.692 995.043L978.826 994.791C989.248 959.02 1013.79 936.435 1014.04 936.21L1014.64 936.878C1014.4 937.1 990.04 959.526 979.692 995.043Z" fill="#F2F2F2"/>
<path id="Vector_128" d="M796.21 994.979L795.317 994.855C798.853 969.354 792.466 949.569 786.485 937.461C780.009 924.352 772.62 917.193 772.546 917.122L773.17 916.471C773.245 916.543 780.748 923.813 787.293 937.062C793.33 949.283 799.777 969.251 796.21 994.979Z" fill="#F2F2F2"/>
<path id="Vector_129" d="M1057.26 996.123H725.393L725.317 994.999C725.126 992.203 720.893 926.236 742.267 902.698C747.045 897.437 752.801 894.675 759.374 894.49C773.307 894.093 782.062 899.312 789.124 903.501C802.435 911.397 811.228 916.614 843.2 877.099C877.835 834.29 915.205 825.081 936.687 830.202C950.568 833.511 960.134 842.865 962.934 855.864C965.585 868.173 964.741 879.739 964.063 889.032C963.336 898.975 962.763 906.829 966.847 910.389C970.256 913.358 977.061 913.629 988.26 911.238C1011.04 906.379 1042.83 910.537 1058.78 931.151C1067.36 942.241 1074.13 962.399 1057.6 995.457L1057.26 996.123ZM727.658 993.711H1055.77C1068.09 968.723 1068.47 947.613 1056.87 932.627C1042.24 913.717 1011.53 908.74 988.763 913.597C976.595 916.194 969.345 915.765 965.262 912.207C960.269 907.856 960.881 899.472 961.656 888.856C962.324 879.717 963.155 868.342 960.576 856.371C957.98 844.317 949.069 835.634 936.128 832.548C915.331 827.586 879.005 836.68 845.075 878.616C811.793 919.751 801.767 913.805 787.894 905.576C780.745 901.336 772.628 896.527 759.443 896.901C753.55 897.067 748.373 899.563 744.052 904.32C724.842 925.474 727.188 984.793 727.658 993.711Z" fill="#CFCCE0"/>
</g>
<g id="bush_6">
<path id="Vector_130" d="M1670.69 1046.41H1403.82C1403.82 1046.41 1398.41 967.072 1430.42 966.171C1462.42 965.269 1458.82 1001.33 1498.94 951.746C1539.06 902.159 1587.74 904.864 1594.05 934.165C1600.36 963.466 1581.88 986.907 1615.69 979.694C1649.5 972.482 1698.18 991.415 1670.69 1046.41Z" fill="#44A34E"/>
<path id="Vector_131" d="M1532.75 1046.43L1531.85 1046.39C1533.95 994.157 1544.89 960.595 1553.7 941.639C1563.26 921.055 1572.47 912.723 1572.57 912.641L1573.17 913.315C1573.07 913.396 1563.97 921.645 1554.48 942.089C1545.72 960.966 1534.84 994.39 1532.75 1046.43Z" fill="#F2F2F2"/>
<path id="Vector_132" d="M1629.33 1046.54L1628.47 1046.29C1638.89 1010.51 1663.43 987.928 1663.68 987.704L1664.29 988.372C1664.04 988.594 1639.68 1011.02 1629.33 1046.54Z" fill="#F2F2F2"/>
<path id="Vector_133" d="M1445.85 1046.47L1444.96 1046.35C1448.5 1020.85 1442.11 1001.06 1436.13 988.955C1429.65 975.846 1422.26 968.687 1422.19 968.616L1422.81 967.965C1422.89 968.037 1430.39 975.307 1436.94 988.556C1442.97 1000.78 1449.42 1020.74 1445.85 1046.47Z" fill="#F2F2F2"/>
<path id="Vector_134" d="M1706.91 1047.62H1375.04L1374.96 1046.49C1374.77 1043.7 1370.53 977.73 1391.91 954.192C1396.69 948.93 1402.44 946.169 1409.02 945.984C1422.95 945.587 1431.7 950.806 1438.77 954.995C1452.08 962.891 1460.87 968.108 1492.84 928.592C1527.48 885.784 1564.85 876.575 1586.33 881.696C1600.21 885.005 1609.78 894.359 1612.58 907.358C1615.23 919.667 1614.38 931.232 1613.7 940.526C1612.98 950.469 1612.41 958.323 1616.49 961.883C1619.9 964.852 1626.7 965.123 1637.9 962.732C1660.68 957.873 1692.47 962.031 1708.42 982.644C1717.01 993.734 1723.77 1013.89 1707.24 1046.95L1706.91 1047.62ZM1377.3 1045.21H1705.41C1717.73 1020.22 1718.11 999.107 1706.51 984.121C1691.88 965.211 1661.17 960.234 1638.41 965.091C1626.24 967.688 1618.99 967.259 1614.9 963.701C1609.91 959.35 1610.52 950.966 1611.3 940.35C1611.97 931.211 1612.8 919.836 1610.22 907.865C1607.62 895.811 1598.71 887.128 1585.77 884.042C1564.97 879.08 1528.65 888.174 1494.72 930.109C1461.44 971.245 1451.41 965.299 1437.54 957.069C1430.39 952.829 1422.27 948.021 1409.08 948.394C1403.19 948.561 1398.01 951.057 1393.69 955.814C1374.48 976.968 1376.83 1036.29 1377.3 1045.21Z" fill="#CFCCE0"/>
</g>
</g>
<defs>
<filter id="filter0_d_118:38" x="423.771" y="487.481" width="70.4996" height="108.201" filterUnits="userSpaceOnUse" color-interpolation-filters="sRGB">
<feFlood flood-opacity="0" result="BackgroundImageFix"/>
<feColorMatrix in="SourceAlpha" type="matrix" values="0 0 0 0 0 0 0 0 0 0 0 0 0 0 0 0 0 0 127 0" result="hardAlpha"/>
<feOffset dx="4" dy="4"/>
<feGaussianBlur stdDeviation="2"/>
<feComposite in2="hardAlpha" operator="out"/>
<feColorMatrix type="matrix" values="0 0 0 0 0 0 0 0 0 0 0 0 0 0 0 0 0 0 0.25 0"/>
<feBlend mode="normal" in2="BackgroundImageFix" result="effect1_dropShadow_118:38"/>
<feBlend mode="normal" in="SourceGraphic" in2="effect1_dropShadow_118:38" result="shape"/>
</filter>
<filter id="filter1_d_118:38" x="440.43" y="536.577" width="45.5001" height="59.1357" filterUnits="userSpaceOnUse" color-interpolation-filters="sRGB">
<feFlood flood-opacity="0" result="BackgroundImageFix"/>
<feColorMatrix in="SourceAlpha" type="matrix" values="0 0 0 0 0 0 0 0 0 0 0 0 0 0 0 0 0 0 127 0" result="hardAlpha"/>
<feOffset dy="4"/>
<feGaussianBlur stdDeviation="2"/>
<feComposite in2="hardAlpha" operator="out"/>
<feColorMatrix type="matrix" values="0 0 0 0 0 0 0 0 0 0 0 0 0 0 0 0 0 0 0.25 0"/>
<feBlend mode="normal" in2="BackgroundImageFix" result="effect1_dropShadow_118:38"/>
<feBlend mode="normal" in="SourceGraphic" in2="effect1_dropShadow_118:38" result="shape"/>
</filter>
<filter id="filter2_d_118:38" x="407.271" y="553.9" width="33" height="42.0906" filterUnits="userSpaceOnUse" color-interpolation-filters="sRGB">
<feFlood flood-opacity="0" result="BackgroundImageFix"/>
<feColorMatrix in="SourceAlpha" type="matrix" values="0 0 0 0 0 0 0 0 0 0 0 0 0 0 0 0 0 0 127 0" result="hardAlpha"/>
<feOffset dy="4"/>
<feGaussianBlur stdDeviation="2"/>
<feComposite in2="hardAlpha" operator="out"/>
<feColorMatrix type="matrix" values="0 0 0 0 0 0 0 0 0 0 0 0 0 0 0 0 0 0 0.25 0"/>
<feBlend mode="normal" in2="BackgroundImageFix" result="effect1_dropShadow_118:38"/>
<feBlend mode="normal" in="SourceGraphic" in2="effect1_dropShadow_118:38" result="shape"/>
</filter>
<filter id="filter3_d_118:38" x="44.5038" y="562.961" width="257.999" height="408.803" filterUnits="userSpaceOnUse" color-interpolation-filters="sRGB">
<feFlood flood-opacity="0" result="BackgroundImageFix"/>
<feColorMatrix in="SourceAlpha" type="matrix" values="0 0 0 0 0 0 0 0 0 0 0 0 0 0 0 0 0 0 127 0" result="hardAlpha"/>
<feOffset dx="4" dy="4"/>
<feGaussianBlur stdDeviation="2"/>
<feComposite in2="hardAlpha" operator="out"/>
<feColorMatrix type="matrix" values="0 0 0 0 0 0 0 0 0 0 0 0 0 0 0 0 0 0 0.25 0"/>
<feBlend mode="normal" in2="BackgroundImageFix" result="effect1_dropShadow_118:38"/>
<feBlend mode="normal" in="SourceGraphic" in2="effect1_dropShadow_118:38" result="shape"/>
</filter>
<filter id="filter4_d_118:38" x="57.8647" y="759.346" width="158" height="212.543" filterUnits="userSpaceOnUse" color-interpolation-filters="sRGB">
<feFlood flood-opacity="0" result="BackgroundImageFix"/>
<feColorMatrix in="SourceAlpha" type="matrix" values="0 0 0 0 0 0 0 0 0 0 0 0 0 0 0 0 0 0 127 0" result="hardAlpha"/>
<feOffset dy="4"/>
<feGaussianBlur stdDeviation="2"/>
<feComposite in2="hardAlpha" operator="out"/>
<feColorMatrix type="matrix" values="0 0 0 0 0 0 0 0 0 0 0 0 0 0 0 0 0 0 0.25 0"/>
<feBlend mode="normal" in2="BackgroundImageFix" result="effect1_dropShadow_118:38"/>
<feBlend mode="normal" in="SourceGraphic" in2="effect1_dropShadow_118:38" result="shape"/>
</filter>
<filter id="filter5_d_118:38" x="240.504" y="828.638" width="108" height="144.362" filterUnits="userSpaceOnUse" color-interpolation-filters="sRGB">
<feFlood flood-opacity="0" result="BackgroundImageFix"/>
<feColorMatrix in="SourceAlpha" type="matrix" values="0 0 0 0 0 0 0 0 0 0 0 0 0 0 0 0 0 0 127 0" result="hardAlpha"/>
<feOffset dy="4"/>
<feGaussianBlur stdDeviation="2"/>
<feComposite in2="hardAlpha" operator="out"/>
<feColorMatrix type="matrix" values="0 0 0 0 0 0 0 0 0 0 0 0 0 0 0 0 0 0 0.25 0"/>
<feBlend mode="normal" in2="BackgroundImageFix" result="effect1_dropShadow_118:38"/>
<feBlend mode="normal" in="SourceGraphic" in2="effect1_dropShadow_118:38" result="shape"/>
</filter>
<radialGradient id="paint0_radial_118:38" cx="0" cy="0" r="1" gradientUnits="userSpaceOnUse" gradientTransform="translate(557.661 -453.966) rotate(103.128) scale(1194.03 3193.03)">
<stop offset="0.23021" stop-color="#55ACFC"/>
<stop offset="1" stop-color="white"/>
</radialGradient>
<linearGradient id="paint1_linear_118:38" x1="32640.8" y1="26345.7" x2="32640.8" y2="4.41992" gradientUnits="userSpaceOnUse">
<stop stop-color="#808080" stop-opacity="0.25"/>
<stop offset="0.54" stop-color="#808080" stop-opacity="0.12"/>
<stop offset="1" stop-color="#808080" stop-opacity="0.1"/>
</linearGradient>
<linearGradient id="paint2_linear_118:38" x1="645.874" y1="617.595" x2="645.874" y2="612.594" gradientUnits="userSpaceOnUse">
<stop stop-color="#808080" stop-opacity="0.25"/>
<stop offset="0.53514" stop-color="#808080" stop-opacity="0.12"/>
<stop offset="1" stop-color="#808080" stop-opacity="0.1"/>
</linearGradient>
<linearGradient id="paint3_linear_118:38" x1="1151.29" y1="548.3" x2="1110.38" y2="1009.35" gradientUnits="userSpaceOnUse">
<stop offset="0.123398" stop-color="#949494"/>
<stop offset="1" stop-color="white"/>
</linearGradient>
<linearGradient id="paint4_linear_118:38" x1="1071" y1="1119.45" x2="1039.61" y2="612.566" gradientUnits="userSpaceOnUse">
<stop offset="0.123398" stop-color="#9AB967"/>
<stop offset="1" stop-color="white"/>
</linearGradient>
<clipPath id="clip0_118:38">
<rect width="1920" height="1080" fill="white"/>
</clipPath>
</defs>
</svg>
