<svg width="1920" height="1080" viewBox="0 0 1920 1080" fill="none" xmlns="http://www.w3.org/2000/svg">
<g id="perron (1+2)" clip-path="url(#clip0_92:39)">
<rect width="1920" height="1080" fill="white"/>
<g id="sky">
<rect id="skybox" width="1920" height="729" fill="url(#paint0_radial_92:39)"/>
<g id="clouds&#38;sun">
<path id="Vector" d="M1010.07 29.3298H829.134C823.633 29.3298 819.174 33.7891 819.174 39.2898V41.0598C819.174 46.5606 823.633 51.0198 829.134 51.0198H1010.07C1015.57 51.0198 1020.03 46.5606 1020.03 41.0598V39.2898C1020.03 33.7891 1015.57 29.3298 1010.07 29.3298Z" fill="#F2F2F2" fill-opacity="0.7"/>
<path id="Vector_2" d="M1055.06 47.8098H874.124C868.623 47.8098 864.164 52.2691 864.164 57.7698V59.5398C864.164 65.0406 868.623 69.4998 874.124 69.4998H1055.06C1060.56 69.4998 1065.02 65.0406 1065.02 59.5398V57.7698C1065.02 52.2691 1060.56 47.8098 1055.06 47.8098Z" fill="#F2F2F2" fill-opacity="0.7"/>
<path id="Vector_3" d="M978.734 63.8799H797.794C792.293 63.8799 787.834 68.3391 787.834 73.8399V75.6099C787.834 81.1106 792.293 85.5699 797.794 85.5699H978.734C984.235 85.5699 988.694 81.1106 988.694 75.6099V73.8399C988.694 68.3391 984.235 63.8799 978.734 63.8799Z" fill="#F2F2F2" fill-opacity="0.7"/>
<path id="Vector_4" d="M666.194 277.6H485.254C479.753 277.6 475.294 282.059 475.294 287.56V289.33C475.294 294.831 479.753 299.29 485.254 299.29H666.194C671.695 299.29 676.154 294.831 676.154 289.33V287.56C676.154 282.059 671.695 277.6 666.194 277.6Z" fill="#F2F2F2" fill-opacity="0.7"/>
<path id="Vector_5" d="M1640.02 82.7646H1459.08C1453.58 82.7646 1449.12 87.2239 1449.12 92.7247V94.4947C1449.12 99.9954 1453.58 104.455 1459.08 104.455H1640.02C1645.52 104.455 1649.98 99.9954 1649.98 94.4947V92.7247C1649.98 87.2239 1645.52 82.7646 1640.02 82.7646Z" fill="#F2F2F2" fill-opacity="0.7"/>
<path id="Vector_6" d="M711.184 296.08H530.244C524.743 296.08 520.284 300.539 520.284 306.04V307.81C520.284 313.311 524.743 317.77 530.244 317.77H711.184C716.685 317.77 721.144 313.311 721.144 307.81V306.04C721.144 300.539 716.685 296.08 711.184 296.08Z" fill="#F2F2F2" fill-opacity="0.7"/>
<path id="Vector_7" d="M1685.01 101.245H1504.07C1498.57 101.245 1494.11 105.704 1494.11 111.205V112.975C1494.11 118.476 1498.57 122.935 1504.07 122.935H1685.01C1690.51 122.935 1694.97 118.476 1694.97 112.975V111.205C1694.97 105.704 1690.51 101.245 1685.01 101.245Z" fill="#F2F2F2" fill-opacity="0.7"/>
<path id="Vector_8" d="M634.854 312.14H453.914C448.413 312.14 443.954 316.599 443.954 322.1V323.87C443.954 329.371 448.413 333.83 453.914 333.83H634.854C640.355 333.83 644.814 329.371 644.814 323.87V322.1C644.814 316.599 640.355 312.14 634.854 312.14Z" fill="#F2F2F2" fill-opacity="0.7"/>
<path id="Vector_9" d="M1608.68 117.305H1427.74C1422.24 117.305 1417.78 121.764 1417.78 127.265V129.035C1417.78 134.535 1422.24 138.995 1427.74 138.995H1608.68C1614.18 138.995 1618.64 134.535 1618.64 129.035V127.265C1618.64 121.764 1614.18 117.305 1608.68 117.305Z" fill="#F2F2F2" fill-opacity="0.7"/>
<path id="Vector_10" d="M465.324 128.15H284.384C278.883 128.15 274.424 132.609 274.424 138.11V139.88C274.424 145.381 278.883 149.84 284.384 149.84H465.324C470.825 149.84 475.284 145.381 475.284 139.88V138.11C475.284 132.609 470.825 128.15 465.324 128.15Z" fill="#F2F2F2" fill-opacity="0.7"/>
<path id="Vector_11" d="M510.324 146.63H329.384C323.883 146.63 319.424 151.089 319.424 156.59V158.36C319.424 163.861 323.883 168.32 329.384 168.32H510.324C515.825 168.32 520.284 163.861 520.284 158.36V156.59C520.284 151.089 515.825 146.63 510.324 146.63Z" fill="#F2F2F2" fill-opacity="0.7"/>
<path id="Vector_12" d="M433.994 162.7H253.054C247.553 162.7 243.094 167.159 243.094 172.66V174.43C243.094 179.931 247.553 184.39 253.054 184.39H433.994C439.495 184.39 443.954 179.931 443.954 174.43V172.66C443.954 167.159 439.495 162.7 433.994 162.7Z" fill="#F2F2F2" fill-opacity="0.7"/>
<g id="Group" opacity="0.5">
<path id="Vector_13" opacity="0.5" d="M382.094 166.72C426.912 166.72 463.244 130.388 463.244 85.5699C463.244 40.752 426.912 4.41992 382.094 4.41992C337.276 4.41992 300.944 40.752 300.944 85.5699C300.944 130.388 337.276 166.72 382.094 166.72Z" fill="url(#paint1_linear_92:39)"/>
</g>
<path id="Vector_14" d="M382.094 157.88C422.03 157.88 454.404 125.506 454.404 85.57C454.404 45.6343 422.03 13.26 382.094 13.26C342.158 13.26 309.784 45.6343 309.784 85.57C309.784 125.506 342.158 157.88 382.094 157.88Z" fill="#FCCC63"/>
</g>
</g>
<g id="buildings">
<g id="building-svgrepo-com 3" clip-path="url(#clip1_92:39)">
<g id="Group_2">
<path id="Vector_15" d="M1260.23 100.736H937.067V728.236H1260.23V100.736Z" fill="#E4697F"/>
<g id="Group_3">
<g id="Group_4">
<path id="Vector_16" d="M1029.4 163.486H983.234V257.611H1029.4V163.486Z" fill="#3498DB"/>
<path id="Vector_17" d="M1121.73 163.486H1075.57V257.611H1121.73V163.486Z" fill="#3498DB"/>
<path id="Vector_18" d="M1214.07 163.486H1167.9V257.611H1214.07V163.486Z" fill="#3498DB"/>
</g>
<g id="Group_5">
<path id="Vector_19" d="M1029.4 163.486H983.234V194.861H1029.4V163.486Z" fill="#2980B9"/>
<path id="Vector_20" d="M1121.73 163.486H1075.57V194.861H1121.73V163.486Z" fill="#2980B9"/>
<path id="Vector_21" d="M1214.07 163.486H1167.9V194.861H1214.07V163.486Z" fill="#2980B9"/>
</g>
</g>
<g id="Group_6">
<g id="Group_7">
<path id="Vector_22" d="M1029.4 320.361H983.234V414.486H1029.4V320.361Z" fill="#3498DB"/>
<path id="Vector_23" d="M1121.73 320.361H1075.57V414.486H1121.73V320.361Z" fill="#3498DB"/>
<path id="Vector_24" d="M1214.07 320.361H1167.9V414.486H1214.07V320.361Z" fill="#3498DB"/>
</g>
<g id="Group_8">
<path id="Vector_25" d="M1029.4 320.361H983.234V351.736H1029.4V320.361Z" fill="#2980B9"/>
<path id="Vector_26" d="M1121.73 320.361H1075.57V351.736H1121.73V320.361Z" fill="#2980B9"/>
<path id="Vector_27" d="M1214.07 320.361H1167.9V351.736H1214.07V320.361Z" fill="#2980B9"/>
</g>
</g>
<g id="Group_9">
<g id="Group_10">
<path id="Vector_28" d="M1029.4 477.236H983.234V571.361H1029.4V477.236Z" fill="#3498DB"/>
<path id="Vector_29" d="M1121.73 477.236H1075.57V571.361H1121.73V477.236Z" fill="#3498DB"/>
<path id="Vector_30" d="M1214.07 477.236H1167.9V571.361H1214.07V477.236Z" fill="#3498DB"/>
</g>
<g id="Group_11">
<path id="Vector_31" d="M1029.4 477.236H983.234V508.611H1029.4V477.236Z" fill="#2980B9"/>
<path id="Vector_32" d="M1121.73 477.236H1075.57V508.611H1121.73V477.236Z" fill="#2980B9"/>
<path id="Vector_33" d="M1214.07 477.236H1167.9V508.611H1214.07V477.236Z" fill="#2980B9"/>
</g>
</g>
<g id="Group_12">
<path id="Vector_34" d="M1121.73 634.111H983.234V728.236H1121.73V634.111Z" fill="#E67E22"/>
<path id="Vector_35" d="M1121.73 634.111H983.234V665.486H1121.73V634.111Z" fill="#D35400"/>
<path id="Vector_36" d="M1052.48 634.111H1029.4V728.236H1052.48V634.111Z" fill="#D35400"/>
<path id="Vector_37" d="M1214.07 634.111H1167.9V696.861H1214.07V634.111Z" fill="#3498DB"/>
<path id="Vector_38" d="M1214.07 634.111H1167.9V665.486H1214.07V634.111Z" fill="#2980B9"/>
</g>
<path id="Vector_39" d="M913.984 69.3611H1283.32L1221.75 6.61108H975.547L913.984 69.3611" fill="#BDC3C7"/>
<path id="Vector_40" d="M1283.32 69.3611H913.984V100.736H1283.32V69.3611Z" fill="#7F8C8D"/>
<path id="Vector_41" d="M1260.23 100.736H937.067V132.111H1260.23V100.736Z" fill="#95A5A6"/>
</g>
</g>
<g id="building-svgrepo-com 2">
<g id="Group_13">
<path id="Vector_42" d="M1561.57 329.625H1327.07V727.125H1561.57V329.625Z" fill="#C9A23D"/>
<g id="Group_14">
<g id="Group_15">
<path id="Vector_43" d="M1394.07 369.375H1360.57V429H1394.07V369.375Z" fill="#3498DB"/>
<path id="Vector_44" d="M1461.07 369.375H1427.57V429H1461.07V369.375Z" fill="#3498DB"/>
<path id="Vector_45" d="M1528.07 369.375H1494.57V429H1528.07V369.375Z" fill="#3498DB"/>
</g>
<g id="Group_16">
<path id="Vector_46" d="M1394.07 369.375H1360.57V389.25H1394.07V369.375Z" fill="#2980B9"/>
<path id="Vector_47" d="M1461.07 369.375H1427.57V389.25H1461.07V369.375Z" fill="#2980B9"/>
<path id="Vector_48" d="M1528.07 369.375H1494.57V389.25H1528.07V369.375Z" fill="#2980B9"/>
</g>
</g>
<g id="Group_17">
<g id="Group_18">
<path id="Vector_49" d="M1394.07 468.75H1360.57V528.375H1394.07V468.75Z" fill="#3498DB"/>
<path id="Vector_50" d="M1461.07 468.75H1427.57V528.375H1461.07V468.75Z" fill="#3498DB"/>
<path id="Vector_51" d="M1528.07 468.75H1494.57V528.375H1528.07V468.75Z" fill="#3498DB"/>
</g>
<g id="Group_19">
<path id="Vector_52" d="M1394.07 468.75H1360.57V488.625H1394.07V468.75Z" fill="#2980B9"/>
<path id="Vector_53" d="M1461.07 468.75H1427.57V488.625H1461.07V468.75Z" fill="#2980B9"/>
<path id="Vector_54" d="M1528.07 468.75H1494.57V488.625H1528.07V468.75Z" fill="#2980B9"/>
</g>
</g>
<g id="Group_20">
<g id="Group_21">
<path id="Vector_55" d="M1394.07 568.125H1360.57V627.75H1394.07V568.125Z" fill="#3498DB"/>
<path id="Vector_56" d="M1461.07 568.125H1427.57V627.75H1461.07V568.125Z" fill="#3498DB"/>
<path id="Vector_57" d="M1528.07 568.125H1494.57V627.75H1528.07V568.125Z" fill="#3498DB"/>
</g>
<g id="Group_22">
<path id="Vector_58" d="M1394.07 568.125H1360.57V588H1394.07V568.125Z" fill="#2980B9"/>
<path id="Vector_59" d="M1461.07 568.125H1427.57V588H1461.07V568.125Z" fill="#2980B9"/>
<path id="Vector_60" d="M1528.07 568.125H1494.57V588H1528.07V568.125Z" fill="#2980B9"/>
</g>
</g>
<g id="Group_23">
<path id="Vector_61" d="M1461.07 667.5H1360.57V727.125H1461.07V667.5Z" fill="#E67E22"/>
<path id="Vector_62" d="M1461.07 667.5H1360.57V687.375H1461.07V667.5Z" fill="#D35400"/>
<path id="Vector_63" d="M1410.82 667.5H1394.07V727.125H1410.82V667.5Z" fill="#D35400"/>
<path id="Vector_64" d="M1528.07 667.5H1494.57V707.25H1528.07V667.5Z" fill="#3498DB"/>
<path id="Vector_65" d="M1528.07 667.5H1494.57V687.375H1528.07V667.5Z" fill="#2980B9"/>
</g>
<path id="Vector_66" d="M1310.32 309.75H1578.32L1533.65 270H1354.99L1310.32 309.75" fill="#BDC3C7"/>
<path id="Vector_67" d="M1578.32 309.75H1310.32V329.625H1578.32V309.75Z" fill="#7F8C8D"/>
<path id="Vector_68" d="M1561.57 329.625H1327.07V349.5H1561.57V329.625Z" fill="#95A5A6"/>
</g>
</g>
<g id="building-svgrepo-com 1">
<g id="Group_24">
<path id="Vector_69" d="M1996.19 182.75H1621.11V727.75H1996.19V182.75Z" fill="#7369E4"/>
<g id="Group_25">
<g id="Group_26">
<path id="Vector_70" d="M1728.28 237.25H1674.69V319H1728.28V237.25Z" fill="#3498DB"/>
<path id="Vector_71" d="M1835.44 237.25H1781.86V319H1835.44V237.25Z" fill="#3498DB"/>
<path id="Vector_72" d="M1942.61 237.25H1889.03V319H1942.61V237.25Z" fill="#3498DB"/>
</g>
<g id="Group_27">
<path id="Vector_73" d="M1728.28 237.25H1674.69V264.5H1728.28V237.25Z" fill="#2980B9"/>
<path id="Vector_74" d="M1835.44 237.25H1781.86V264.5H1835.44V237.25Z" fill="#2980B9"/>
<path id="Vector_75" d="M1942.61 237.25H1889.03V264.5H1942.61V237.25Z" fill="#2980B9"/>
</g>
</g>
<g id="Group_28">
<g id="Group_29">
<path id="Vector_76" d="M1728.28 373.5H1674.69V455.25H1728.28V373.5Z" fill="#3498DB"/>
<path id="Vector_77" d="M1835.44 373.5H1781.86V455.25H1835.44V373.5Z" fill="#3498DB"/>
<path id="Vector_78" d="M1942.61 373.5H1889.03V455.25H1942.61V373.5Z" fill="#3498DB"/>
</g>
<g id="Group_30">
<path id="Vector_79" d="M1728.28 373.5H1674.69V400.75H1728.28V373.5Z" fill="#2980B9"/>
<path id="Vector_80" d="M1835.44 373.5H1781.86V400.75H1835.44V373.5Z" fill="#2980B9"/>
<path id="Vector_81" d="M1942.61 373.5H1889.03V400.75H1942.61V373.5Z" fill="#2980B9"/>
</g>
</g>
<g id="Group_31">
<g id="Group_32">
<path id="Vector_82" d="M1728.28 509.75H1674.69V591.5H1728.28V509.75Z" fill="#3498DB"/>
<path id="Vector_83" d="M1835.44 509.75H1781.86V591.5H1835.44V509.75Z" fill="#3498DB"/>
<path id="Vector_84" d="M1942.61 509.75H1889.03V591.5H1942.61V509.75Z" fill="#3498DB"/>
</g>
<g id="Group_33">
<path id="Vector_85" d="M1728.28 509.75H1674.69V537H1728.28V509.75Z" fill="#2980B9"/>
<path id="Vector_86" d="M1835.44 509.75H1781.86V537H1835.44V509.75Z" fill="#2980B9"/>
<path id="Vector_87" d="M1942.61 509.75H1889.03V537H1942.61V509.75Z" fill="#2980B9"/>
</g>
</g>
<g id="Group_34">
<path id="Vector_88" d="M1835.44 646H1674.69V727.75H1835.44V646Z" fill="#E67E22"/>
<path id="Vector_89" d="M1835.44 646H1674.69V673.25H1835.44V646Z" fill="#D35400"/>
<path id="Vector_90" d="M1755.07 646H1728.28V727.75H1755.07V646Z" fill="#D35400"/>
<path id="Vector_91" d="M1942.61 646H1889.03V700.5H1942.61V646Z" fill="#3498DB"/>
<path id="Vector_92" d="M1942.61 646H1889.03V673.25H1942.61V646Z" fill="#2980B9"/>
</g>
<path id="Vector_93" d="M1594.32 155.5H2022.98L1951.53 101H1665.77L1594.32 155.5" fill="#BDC3C7"/>
<path id="Vector_94" d="M2022.98 155.5H1594.32V182.75H2022.98V155.5Z" fill="#7F8C8D"/>
<path id="Vector_95" d="M1996.19 182.75H1621.11V210H1996.19V182.75Z" fill="#95A5A6"/>
</g>
</g>
</g>
<g id="trees">
<g id="tree">
<path id="Vector_96" d="M224.939 421.607C224.229 420.816 223.524 420.025 222.81 419.234C217.178 413.005 211.134 406.849 203.4 403.278C199.712 401.521 195.687 400.588 191.602 400.543C187.38 400.557 183.254 401.664 179.353 403.215C177.508 403.951 175.705 404.788 173.928 405.678C171.899 406.7 169.905 407.789 167.921 408.887C164.196 410.949 160.52 413.1 156.892 415.342C149.673 419.804 142.68 424.606 135.913 429.748C132.405 432.415 128.97 435.17 125.607 438.011C122.479 440.651 119.414 443.362 116.413 446.143C115.771 446.735 114.813 445.777 115.454 445.185C116.246 444.448 117.046 443.716 117.846 442.993C120.106 440.949 122.402 438.946 124.735 436.981C128.988 433.392 133.352 429.941 137.825 426.629C144.782 421.476 151.978 416.673 159.414 412.219C163.129 409.995 166.896 407.864 170.714 405.827C171.867 405.213 173.033 404.611 174.213 404.042C176.89 402.692 179.671 401.559 182.53 400.656C186.58 399.346 190.865 398.925 195.092 399.422C199.174 400.016 203.106 401.376 206.682 403.432C214.276 407.676 220.166 414.239 225.897 420.645C226.476 421.296 225.522 422.258 224.939 421.607Z" fill="#E4E4E4"/>
<path id="Vector_97" d="M201.006 411.115C191.759 406.363 179.917 407.294 171.419 413.231C187.628 416.028 203.659 419.769 219.431 424.437C212.881 420.599 207.758 414.585 201.006 411.115Z" fill="#F2F2F2"/>
<path id="Vector_98" d="M171.327 413.215L169.546 414.662C170.149 414.156 170.775 413.681 171.418 413.231C171.387 413.226 171.357 413.22 171.327 413.215Z" fill="#F2F2F2"/>
<path id="Vector_99" d="M127.472 687.564C127.923 687.778 128.42 687.877 128.919 687.852C129.417 687.826 129.902 687.677 130.329 687.419C130.547 687.285 130.725 687.641 130.508 687.773C130.035 688.057 129.499 688.221 128.948 688.25C128.397 688.279 127.848 688.173 127.347 687.941C127.298 687.923 127.258 687.887 127.234 687.84C127.211 687.794 127.206 687.74 127.221 687.69C127.238 687.64 127.273 687.599 127.32 687.575C127.367 687.552 127.422 687.547 127.472 687.564V687.564Z" fill="white"/>
<path id="Vector_100" d="M325.747 433.869C323.841 430.34 323.575 425.714 325.916 422.457C327.073 426.662 329.681 430.323 333.278 432.791C334.668 433.738 336.314 434.646 336.789 436.26C337.04 437.288 336.885 438.374 336.359 439.292C335.833 440.198 335.193 441.034 334.455 441.778L334.387 442.03C330.937 439.985 327.654 437.398 325.747 433.869Z" fill="#9AB967"/>
<path id="Vector_101" d="M156.199 618.458C139.686 618.458 123.717 612.561 111.167 601.829C106.981 598.246 102.52 592.016 97.9096 583.314C94.9674 577.708 93.3194 571.515 93.087 565.188C92.8546 558.862 94.0436 552.564 96.5667 546.758C94.1347 549.232 91.4447 551.438 88.5428 553.339L87.0758 554.315L86.991 552.556C86.9354 551.412 86.9073 550.272 86.9073 549.167C86.9016 542.698 87.7945 536.258 89.5602 530.034C97.566 501.895 98.935 471.677 93.6286 440.218C92.7187 434.805 92.2615 429.324 92.2618 423.834C92.2618 369.997 136.07 326.197 189.918 326.197C210.449 326.168 230.465 332.621 247.113 344.635C263.761 356.65 276.192 373.613 282.634 393.107L282.928 393.996L282.06 394.347C277.618 396.214 272.939 397.459 268.155 398.045C273.255 399.085 278.459 399.521 283.66 399.344L284.467 399.316L284.663 400.1C286.598 407.863 287.576 415.834 287.574 423.834L287.571 424.699C287.553 430.776 288.816 436.789 291.277 442.345C293.739 447.901 297.344 452.876 301.857 456.945C308.986 463.445 314.682 471.359 318.583 480.182C322.484 489.005 324.504 498.545 324.514 508.192C324.514 519.605 316.757 534.587 310.25 545.146C308.6 547.835 306.363 550.116 303.707 551.818C301.05 553.52 298.042 554.598 294.91 554.971C291.942 555.346 288.929 555.063 286.083 554.144C283.237 553.224 280.628 551.69 278.44 549.651C281.52 555.844 285.534 561.527 290.341 566.5L291.229 567.415L290.127 568.058C279.533 574.235 267.487 577.488 255.224 577.484L254.505 577.482C235.886 577.482 218.213 584.695 206.018 597.272C199.542 603.943 191.8 609.253 183.245 612.891C174.69 616.529 165.495 618.422 156.199 618.458V618.458Z" fill="#9AB967"/>
<path id="Vector_102" d="M131.764 727C131.464 727 131.174 726.891 130.948 726.695C130.722 726.498 130.574 726.226 130.532 725.93C130.479 725.558 125.293 688.158 129.95 638.453C134.251 592.548 148.064 526.43 189.44 472.128C189.539 471.998 189.663 471.888 189.805 471.805C189.946 471.723 190.103 471.669 190.265 471.647C190.427 471.625 190.592 471.635 190.751 471.677C190.909 471.719 191.058 471.791 191.188 471.89C191.318 471.99 191.428 472.114 191.51 472.255C191.593 472.397 191.646 472.554 191.668 472.716C191.69 472.878 191.679 473.043 191.637 473.202C191.595 473.36 191.522 473.509 191.423 473.639C150.404 527.472 136.703 593.105 132.432 638.685C127.802 688.101 132.947 725.209 132.999 725.578C133.024 725.755 133.011 725.935 132.96 726.106C132.91 726.278 132.823 726.436 132.706 726.571C132.589 726.706 132.444 726.814 132.281 726.888C132.119 726.962 131.942 727 131.764 727H131.764Z" fill="#3F3D56"/>
<path id="Vector_103" d="M152.449 543.93C152.186 543.931 151.929 543.847 151.716 543.693C151.503 543.538 151.344 543.32 151.263 543.07C151.181 542.82 151.181 542.55 151.263 542.3C151.344 542.049 151.502 541.831 151.715 541.676C151.865 541.567 167.002 530.661 189.631 522.375C210.55 514.716 242.36 507.773 275.109 518.196C275.266 518.245 275.411 518.324 275.537 518.43C275.663 518.535 275.767 518.664 275.843 518.81C275.919 518.955 275.965 519.115 275.979 519.278C275.994 519.442 275.975 519.607 275.925 519.763C275.876 519.92 275.795 520.065 275.689 520.19C275.583 520.316 275.453 520.419 275.307 520.494C275.161 520.569 275.001 520.614 274.838 520.628C274.674 520.641 274.509 520.621 274.353 520.571C242.276 510.362 211.042 517.19 190.488 524.715C168.182 532.883 153.328 543.585 153.18 543.692C152.968 543.847 152.712 543.93 152.449 543.93Z" fill="#3F3D56"/>
<path id="Vector_104" d="M97.4515 652.304C95.5453 648.775 95.2792 644.149 97.6197 640.892C98.7773 645.097 101.385 648.758 104.982 651.226C106.373 652.173 108.018 653.081 108.493 654.695C108.744 655.723 108.59 656.809 108.063 657.727C107.537 658.633 106.897 659.469 106.159 660.213L106.091 660.465C102.641 658.42 99.3577 655.834 97.4515 652.304Z" fill="#9AB967"/>
</g>
<g id="bush">
<path id="Vector_105" d="M319.546 650.882C319.574 707.368 286.003 727.105 244.583 727.125C243.621 727.125 242.664 727.115 241.711 727.094C239.791 727.054 237.892 726.967 236.012 726.834C198.628 724.206 169.572 703.487 169.546 650.955C169.52 596.591 238.967 527.952 244.176 522.876C244.18 522.876 244.18 522.876 244.185 522.872C244.383 522.678 244.484 522.582 244.484 522.582C244.484 522.582 319.519 594.401 319.546 650.882Z" fill="#BEDD8C"/>
<path id="Vector_106" d="M241.85 718.486L269.261 680.146L241.783 722.693L241.711 727.094C239.791 727.054 237.892 726.967 236.012 726.835L238.94 670.324L238.917 669.887L238.967 669.804L239.246 664.464L211.656 621.838L239.326 660.464L239.396 661.596L241.608 618.901L217.986 574.85L241.894 611.397L244.176 522.876L244.185 522.582L244.185 522.872L243.832 592.68L267.309 564.994L243.734 598.691L243.131 636.921L265.057 600.223L243.046 642.542L242.711 663.8L274.532 612.716L242.591 671.215L241.85 718.486Z" fill="#3F3D56"/>
</g>
<g id="bush_2">
<path id="Vector_107" d="M136.907 677.408C136.926 715.065 114.545 728.223 86.9319 728.236C86.2905 728.236 85.6522 728.229 85.017 728.215C83.7372 728.188 82.4708 728.131 81.2177 728.042C56.2951 726.29 36.9242 712.477 36.9072 677.456C36.8896 641.214 83.1879 595.454 86.6602 592.07C86.6632 592.07 86.6632 592.07 86.6663 592.067C86.7982 591.938 86.8657 591.874 86.8657 591.874C86.8657 591.874 136.889 639.753 136.907 677.408Z" fill="#BEDD8C"/>
<path id="Vector_108" d="M85.1096 722.477L103.384 696.917L85.0649 725.282L85.0173 728.216C83.7375 728.189 82.4711 728.131 81.218 728.043L83.1699 690.369L83.1544 690.077L83.1881 690.022L83.3736 686.462L64.9807 658.045L83.4275 683.795L83.4739 684.55L84.9485 656.086L69.2004 626.72L85.1394 651.084L86.6605 592.07L86.6665 591.874L86.6666 592.067L86.4314 638.606L102.083 620.149L86.3658 642.614L85.9639 668.1L100.581 643.635L85.9075 671.847L85.6842 686.019L106.898 651.964L85.6037 690.963L85.1096 722.477Z" fill="#3F3D56"/>
</g>
</g>
<g id="train-ns">
<g id="front">
<path id="path1178" d="M593.249 744.56L627.848 762.955H730.404L774.132 739.707L793.979 706.225H716.527V715.734H638.106V706.225H567.431L593.249 744.56Z" fill="#151515"/>
<path id="path1049" d="M529.795 698.082L446.314 746.28V701.123" fill="#242424"/>
<path id="path1891" d="M446.326 711.128L448.152 586.989L473.71 508.49C473.71 508.49 513.872 461.025 575.942 437.292C638.011 413.56 687.301 413.56 687.301 413.56L2416.11 414.929V705.651H2083.86L2047.35 753.116H829.696L796.835 711.128H446.326Z" fill="#FFAE01"/>
<path id="path1039" d="M571.229 438.947H2416.28V414.854L683.21 413C658.995 415.27 647.05 417.212 627.355 421.361C599.977 428.312 588.772 432.152 571.229 438.947Z" fill="#4B4B4B"/>
<path id="rect1062" d="M649.72 521.977C640.741 521.977 633.511 529.207 633.511 538.186V609.79C633.511 618.769 640.741 625.999 649.72 625.999H655.012H777.578H793.788V609.79V538.186V521.977H777.578H655.012H649.72Z" fill="#003674"/>
<path id="rect1154" d="M2009.75 466.903H861.407C854.908 466.903 849.639 472.172 849.639 478.671V513.191C849.639 519.69 854.908 524.959 861.407 524.959H2009.75C2016.24 524.959 2021.51 519.69 2021.51 513.191V478.671C2021.51 472.172 2016.24 466.903 2009.75 466.903Z" fill="#003374"/>
<path id="rect1064" d="M2036.72 596.919H839.925V698.679H2036.72V596.919Z" fill="#003674"/>
<path id="rect1893" d="M911.098 474.035H871.691C864.677 474.035 858.991 479.721 858.991 486.735V505.148C858.991 512.162 864.677 517.849 871.691 517.849H911.098C918.112 517.849 923.798 512.162 923.798 505.148V486.735C923.798 479.721 918.112 474.035 911.098 474.035Z" fill="#5C7BA3" stroke="#4D4D4D" stroke-width="0.165"/>
<path id="rect1895" d="M1033.55 474.146H966.86C959.883 474.146 954.226 479.802 954.226 486.78V505.097C954.226 512.074 959.883 517.731 966.86 517.731H1033.55C1040.53 517.731 1046.19 512.074 1046.19 505.097V486.78C1046.19 479.802 1040.53 474.146 1033.55 474.146Z" fill="#5C7BA3" stroke="#4D4D4D" stroke-width="0.196037"/>
<path id="rect1897" d="M1156.42 474.146H1089.73C1082.75 474.146 1077.09 479.802 1077.09 486.78V505.097C1077.09 512.074 1082.75 517.731 1089.73 517.731H1156.42C1163.4 517.731 1169.05 512.074 1169.05 505.097V486.78C1169.05 479.802 1163.4 474.146 1156.42 474.146Z" fill="#5C7BA3" stroke="#4D4D4D" stroke-width="0.196037"/>
<path id="rect1899" d="M1279.9 474.146H1213.2C1206.23 474.146 1200.57 479.802 1200.57 486.78V505.097C1200.57 512.074 1206.23 517.731 1213.2 517.731H1279.9C1286.88 517.731 1292.53 512.074 1292.53 505.097V486.78C1292.53 479.802 1286.88 474.146 1279.9 474.146Z" fill="#5C7BA3" stroke="#4D4D4D" stroke-width="0.196037"/>
<path id="rect1901" d="M1404.6 474.146H1337.9C1330.93 474.146 1325.27 479.802 1325.27 486.78V505.097C1325.27 512.074 1330.93 517.731 1337.9 517.731H1404.6C1411.58 517.731 1417.23 512.074 1417.23 505.097V486.78C1417.23 479.802 1411.58 474.146 1404.6 474.146Z" fill="#5C7BA3" stroke="#4D4D4D" stroke-width="0.196037"/>
<path id="rect1903" d="M1528.28 474.146H1461.59C1454.61 474.146 1448.96 479.802 1448.96 486.78V505.097C1448.96 512.074 1454.61 517.731 1461.59 517.731H1528.28C1535.26 517.731 1540.92 512.074 1540.92 505.097V486.78C1540.92 479.802 1535.26 474.146 1528.28 474.146Z" fill="#5C7BA3" stroke="#4D4D4D" stroke-width="0.196037"/>
<path id="rect1905" d="M1654.75 474.146H1588.06C1581.08 474.146 1575.43 479.802 1575.43 486.78V505.097C1575.43 512.074 1581.08 517.731 1588.06 517.731H1654.75C1661.73 517.731 1667.39 512.074 1667.39 505.097V486.78C1667.39 479.802 1661.73 474.146 1654.75 474.146Z" fill="#5C7BA3" stroke="#4D4D4D" stroke-width="0.196037"/>
<path id="rect1907" d="M1781.24 474.146H1714.55C1707.57 474.146 1701.92 479.802 1701.92 486.78V505.097C1701.92 512.074 1707.57 517.731 1714.55 517.731H1781.24C1788.22 517.731 1793.88 512.074 1793.88 505.097V486.78C1793.88 479.802 1788.22 474.146 1781.24 474.146Z" fill="#5C7BA3" stroke="#4D4D4D" stroke-width="0.196037"/>
<path id="rect1923" d="M1906.85 474.146H1840.16C1833.18 474.146 1827.52 479.802 1827.52 486.78V505.097C1827.52 512.074 1833.18 517.731 1840.16 517.731H1906.85C1913.83 517.731 1919.48 512.074 1919.48 505.097V486.78C1919.48 479.802 1913.83 474.146 1906.85 474.146Z" fill="#5C7BA3" stroke="#4D4D4D" stroke-width="0.196037"/>
<path id="rect1925" d="M1905.72 611.268H1841.67C1834.21 611.268 1828.16 617.315 1828.16 624.775V675.555C1828.16 683.015 1834.21 689.062 1841.67 689.062H1905.72C1913.18 689.062 1919.23 683.015 1919.23 675.555V624.775C1919.23 617.315 1913.18 611.268 1905.72 611.268Z" fill="#5C7BA3" stroke="#4D4D4D" stroke-width="0.260628"/>
<path id="path1076" d="M793.793 521.977L839.905 596.928V698.689L793.793 625.999V521.977Z" fill="#003674"/>
<path id="rect1943" d="M909.332 611.113H873.422C865.553 611.113 859.174 617.492 859.174 625.361V674.963C859.174 682.831 865.553 689.21 873.422 689.21H909.332C917.201 689.21 923.579 682.831 923.579 674.963V625.361C923.579 617.492 917.201 611.113 909.332 611.113Z" fill="#5C7BA3" stroke="#4D4D4D" stroke-width="0.219605"/>
<path id="rect5637" d="M770.466 515.668H660.896V691.872H770.466V515.668Z" stroke="#4D4D4D" stroke-width="0.160927"/>
<path id="rect5641" d="M609.746 517.384H554.066V682.598H609.746V517.384Z" fill="#FFAE01" stroke="#4D4D4D" stroke-width="0.165"/>
<path id="rect5647" d="M609.965 680.379H553.883V701.243H609.965V680.379Z" fill="#313131" stroke="#4D4D4D" stroke-width="0.0588466"/>
<path id="path1140" d="M446.336 708.564H421.691V723.853H458.203L446.336 708.564Z" fill="#161616" stroke="#161616" stroke-width="0.264583"/>
<path id="path1142" d="M421.976 700.971C421.976 700.971 420.15 709.643 420.15 716.489C420.15 723.335 422.204 730.637 422.204 730.637" stroke="#141414" stroke-width="0.165"/>
<path id="rect1158" d="M586.216 539.544H577.616C572.272 539.544 567.939 543.876 567.939 549.22V600.826C567.939 606.17 572.272 610.502 577.616 610.502H586.216C591.56 610.502 595.892 606.17 595.892 600.826V549.22C595.892 543.876 591.56 539.544 586.216 539.544Z" fill="#5C7BA3" stroke="#4B4B4B" stroke-width="0.165"/>
<g id="path1160">
<path d="M715.586 691.648V515.606Z" fill="#FFAE01"/>
<path d="M715.586 691.648V515.606" stroke="#4D4D4D" stroke-width="0.160602"/>
</g>
<path id="rect1162" d="M692.584 539.544H683.983C678.639 539.544 674.307 543.876 674.307 549.22V600.826C674.307 606.17 678.639 610.502 683.983 610.502H692.584C697.927 610.502 702.26 606.17 702.26 600.826V549.22C702.26 543.876 697.927 539.544 692.584 539.544Z" fill="#5C7BA3" stroke="#4B4B4B" stroke-width="0.165"/>
<path id="rect1164" d="M748.088 539.544H739.487C734.143 539.544 729.811 543.876 729.811 549.22V600.826C729.811 606.17 734.143 610.502 739.487 610.502H748.088C753.432 610.502 757.764 606.17 757.764 600.826V549.22C757.764 543.876 753.432 539.544 748.088 539.544Z" fill="#5C7BA3" stroke="#4B4B4B" stroke-width="0.165"/>
<path id="circle1180" d="M585.315 766.739C601.416 766.739 614.469 753.686 614.469 737.585C614.469 721.484 601.416 708.432 585.315 708.432C569.214 708.432 556.161 721.484 556.161 737.585C556.161 753.686 569.214 766.739 585.315 766.739Z" fill="#2D2D2D" stroke="#4B4B4B" stroke-width="0.527318"/>
<path id="circle1182" d="M777.17 766.739C793.271 766.739 806.323 753.686 806.323 737.585C806.323 721.484 793.271 708.432 777.17 708.432C761.068 708.432 748.016 721.484 748.016 737.585C748.016 753.686 761.068 766.739 777.17 766.739Z" fill="#2D2D2D" stroke="#4B4B4B" stroke-width="0.527318"/>
<path id="rect1200" d="M771.005 692.369H660.219V703.689H771.005V692.369Z" fill="#282828"/>
<path id="rect1080" d="M448.828 658.258H446.613C445.231 658.258 444.11 659.379 444.11 660.761V672.859C444.11 674.242 445.231 675.363 446.613 675.363H448.828C450.211 675.363 451.332 674.242 451.332 672.859V660.761C451.332 659.379 450.211 658.258 448.828 658.258Z" fill="#FFAE01"/>
<path id="path1082" d="M1088.1 569.495L1079.32 560.703L1088.07 551.989L1096.82 543.274L1108.09 543.318L1119.36 543.363L1120.2 543.665C1121.22 544.032 1122.15 544.494 1122.89 545.004C1123.2 545.214 1126.05 547.961 1129.24 551.108C1133.86 555.667 1135.15 556.872 1135.59 557.04C1136.09 557.229 1137.13 557.247 1145.71 557.216L1155.27 557.179L1148.42 550.268L1141.58 543.358L1146.55 543.321L1151.52 543.284L1160.16 551.937C1164.91 556.696 1168.77 560.647 1168.75 560.717C1168.73 560.783 1164.84 564.774 1160.13 569.576L1151.55 578.308L1140.23 578.264L1128.92 578.22L1127.88 577.871C1126.06 577.257 1124.65 576.263 1122.65 574.186C1121.98 573.494 1119.62 571.088 1117.4 568.839C1114.2 565.596 1113.25 564.707 1112.81 564.541C1112.31 564.356 1111.23 564.336 1102.58 564.368L1092.9 564.405L1099.78 571.348L1106.67 578.291H1101.77H1096.88L1088.1 569.495ZM1151.92 567.793L1155.27 564.402L1151.52 564.316C1149.46 564.272 1144.93 564.224 1141.46 564.224C1134.31 564.209 1134.29 564.209 1132.24 563.219L1131.03 562.642L1125.02 556.74C1121.72 553.493 1118.8 550.707 1118.54 550.547L1118.07 550.257L1108.82 550.256L1099.58 550.255L1096.23 553.71L1092.89 557.166L1094.05 557.202C1094.68 557.217 1099.39 557.289 1104.51 557.34L1113.81 557.443L1114.91 557.857C1115.52 558.084 1116.35 558.492 1116.76 558.762C1117.18 559.035 1120.02 561.722 1123.15 564.805C1126.25 567.858 1128.98 570.499 1129.22 570.672C1129.82 571.114 1130.29 571.136 1140.1 571.16L1148.57 571.175L1151.92 567.793Z" fill="#003474"/>
<path id="rect1092" d="M1780.14 611.268H1716.09C1708.63 611.268 1702.58 617.315 1702.58 624.775V675.555C1702.58 683.015 1708.63 689.062 1716.09 689.062H1780.14C1787.6 689.062 1793.65 683.015 1793.65 675.555V624.775C1793.65 617.315 1787.6 611.268 1780.14 611.268Z" fill="#5C7BA3" stroke="#4D4D4D" stroke-width="0.260628"/>
<path id="rect1094" d="M1653.67 611.268H1589.62C1582.16 611.268 1576.11 617.315 1576.11 624.775V675.555C1576.11 683.015 1582.16 689.062 1589.62 689.062H1653.67C1661.13 689.062 1667.18 683.015 1667.18 675.555V624.775C1667.18 617.315 1661.13 611.268 1653.67 611.268Z" fill="#5C7BA3" stroke="#4D4D4D" stroke-width="0.260628"/>
<path id="rect1096" d="M1527.08 611.268H1463.03C1455.57 611.268 1449.52 617.315 1449.52 624.775V675.555C1449.52 683.015 1455.57 689.062 1463.03 689.062H1527.08C1534.54 689.062 1540.59 683.015 1540.59 675.555V624.775C1540.59 617.315 1534.54 611.268 1527.08 611.268Z" fill="#5C7BA3" stroke="#4D4D4D" stroke-width="0.260628"/>
<path id="rect1098" d="M1155.33 611.268H1091.28C1083.82 611.268 1077.77 617.315 1077.77 624.775V675.555C1077.77 683.015 1083.82 689.062 1091.28 689.062H1155.33C1162.79 689.062 1168.84 683.015 1168.84 675.555V624.775C1168.84 617.315 1162.79 611.268 1155.33 611.268Z" fill="#5C7BA3" stroke="#4D4D4D" stroke-width="0.260628"/>
<path id="rect1100" d="M1032.35 611.268H968.301C960.841 611.268 954.794 617.315 954.794 624.775V675.555C954.794 683.015 960.841 689.062 968.301 689.062H1032.35C1039.81 689.062 1045.86 683.015 1045.86 675.555V624.775C1045.86 617.315 1039.81 611.268 1032.35 611.268Z" fill="#5C7BA3" stroke="#4D4D4D" stroke-width="0.260628"/>
<path id="1" d="M929.483 606.016H929.034V603.043L928.135 603.373V602.968L929.413 602.488H929.483V606.016Z" fill="white"/>
<path id="1_2" d="M928.955 469.477H928.507V466.504L927.607 466.834V466.429L928.885 465.949H928.955V469.477Z" fill="white"/>
<path id="path1132" d="M730.836 610.652L716.258 596.073V625.231L730.836 610.652Z" fill="white"/>
<path id="path1134" d="M700.481 610.652L715.06 596.073V625.231L700.481 610.652Z" fill="white"/>
<path id="circle1136" d="M781.013 615.092C783.241 615.092 785.047 613.286 785.047 611.058C785.047 608.83 783.241 607.024 781.013 607.024C778.786 607.024 776.979 608.83 776.979 611.058C776.979 613.286 778.786 615.092 781.013 615.092Z" fill="#4B4B4B"/>
<path id="circle1138" d="M781.045 614.45C782.916 614.45 784.433 612.933 784.433 611.061C784.433 609.19 782.916 607.673 781.045 607.673C779.173 607.673 777.656 609.19 777.656 611.061C777.656 612.933 779.173 614.45 781.045 614.45Z" fill="#E7E7E7"/>
<path id="circle1140" d="M781.069 612.228C781.715 612.228 782.238 611.704 782.238 611.058C782.238 610.412 781.715 609.888 781.069 609.888C780.422 609.888 779.899 610.412 779.899 611.058C779.899 611.704 780.422 612.228 781.069 612.228Z" fill="#000D58"/>
<path id="rect1085" d="M1423.4 616.562H1319.05V677.513H1423.4V616.562Z" fill="#363636"/>
<path id="path1087" d="M1323.04 616.907V676.729" stroke="#2B2B2B" stroke-width="0.065"/>
<path id="path1089" d="M1326.34 616.907V676.729" stroke="#2B2B2B" stroke-width="0.065"/>
<path id="path1091" d="M1329.64 616.907V676.729" stroke="#2B2B2B" stroke-width="0.065"/>
<path id="path1093" d="M1332.94 616.907V676.729" stroke="#2B2B2B" stroke-width="0.065"/>
<path id="path1095" d="M1336.24 616.907V676.729" stroke="#2B2B2B" stroke-width="0.065"/>
<path id="path1097" d="M1339.53 616.907V676.729" stroke="#2B2B2B" stroke-width="0.065"/>
<path id="path1099" d="M1342.84 616.907V676.729" stroke="#2B2B2B" stroke-width="0.065"/>
<path id="path1101" d="M1346.13 616.907V676.729" stroke="#2B2B2B" stroke-width="0.065"/>
<path id="path1103" d="M1349.43 616.907V676.729" stroke="#2B2B2B" stroke-width="0.065"/>
<path id="path1105" d="M1352.84 616.907V676.729" stroke="#2B2B2B" stroke-width="0.065"/>
<path id="path1107" d="M1356.15 616.907V676.729" stroke="#2B2B2B" stroke-width="0.065"/>
<path id="path1109" d="M1359.45 616.907V676.729" stroke="#2B2B2B" stroke-width="0.065"/>
<path id="path1111" d="M1362.75 616.907V676.729" stroke="#2B2B2B" stroke-width="0.065"/>
<path id="path1113" d="M1366.05 616.907V676.729" stroke="#2B2B2B" stroke-width="0.065"/>
<path id="path1115" d="M1369.35 616.907V676.729" stroke="#2B2B2B" stroke-width="0.065"/>
<path id="path1117" d="M1372.65 616.907V676.729" stroke="#2B2B2B" stroke-width="0.065"/>
<path id="path1119" d="M1375.95 616.907V676.729" stroke="#2B2B2B" stroke-width="0.065"/>
<path id="path1121" d="M1379.25 616.907V676.729" stroke="#2B2B2B" stroke-width="0.065"/>
<path id="path1123" d="M1382.54 616.907V676.729" stroke="#2B2B2B" stroke-width="0.065"/>
<path id="path1125" d="M1385.84 616.907V676.729" stroke="#2B2B2B" stroke-width="0.065"/>
<path id="path1127" d="M1389.14 616.907V676.729" stroke="#2B2B2B" stroke-width="0.065"/>
<path id="path1129" d="M1392.44 616.907V676.729" stroke="#2B2B2B" stroke-width="0.065"/>
<path id="path1131" d="M1395.74 616.907V676.729" stroke="#2B2B2B" stroke-width="0.065"/>
<path id="path1133" d="M1399.04 616.907V676.729" stroke="#2B2B2B" stroke-width="0.065"/>
<path id="path1135" d="M1402.35 616.907V676.729" stroke="#2B2B2B" stroke-width="0.065"/>
<path id="path1137" d="M1405.76 616.907V676.729" stroke="#2B2B2B" stroke-width="0.065"/>
<path id="path1139" d="M1409.06 616.907V676.729" stroke="#2B2B2B" stroke-width="0.065"/>
<path id="path1141" d="M1412.36 616.907V676.729" stroke="#2B2B2B" stroke-width="0.065"/>
<path id="path1143" d="M1415.66 616.907V676.729" stroke="#2B2B2B" stroke-width="0.065"/>
<path id="path1145" d="M1418.96 616.907V676.729" stroke="#2B2B2B" stroke-width="0.065"/>
<path id="path1147" d="M1319.74 616.907V676.729" stroke="#2B2B2B" stroke-width="0.065"/>
<path id="path1149" d="M1422.26 616.907V676.729" stroke="#2B2B2B" stroke-width="0.065"/>
<path id="path1151" d="M548.14 659.674V578.665" stroke="#4B4B4B" stroke-width="0.165"/>
<path id="path1153" d="M615.098 659.674V578.665" stroke="#4B4B4B" stroke-width="0.165"/>
<path id="rect1146" d="M2063.93 731.695H812.725L829.146 753.811H2048.06L2063.93 731.695Z" fill="#4B4B4B"/>
</g>
</g>
<rect id="perron" y="727.75" width="1920" height="352.25" fill="url(#paint2_linear_92:39)"/>
<g id="info-screen">
<path id="screen_shadow" d="M252.018 865.22C276.156 858.828 292.021 915.51 339.517 997.777C387.014 1080.04 504.568 1339.75 494.906 1345.33C485.245 1350.91 359.657 1107.19 312.16 1024.93C264.664 942.659 242.504 894.503 252.018 865.22Z" fill="black" fill-opacity="0.2"/>
<path id="Vector_109" d="M272.773 557.874H255.737V892.918H272.773V557.874Z" fill="#3F3D56"/>
<path id="Vector_110" d="M285.549 857.396H242.959V892.918H285.549V857.396Z" fill="#D0CDE1"/>
<path id="Vector_111" d="M365.975 417.187H170.384C169.004 417.187 167.68 417.704 166.704 418.625C165.728 419.545 165.18 420.793 165.18 422.095V534.562H371.18V422.095C371.18 420.793 370.631 419.545 369.655 418.625C368.679 417.704 367.356 417.187 365.975 417.187Z" fill="#3F3D56"/>
<path id="Vector_112" d="M167.18 552.966V536.562H369.18V552.966C369.18 553.698 368.872 554.426 368.283 554.981C367.69 555.541 366.862 555.874 365.975 555.874H170.384C169.497 555.874 168.669 555.541 168.076 554.981C167.487 554.426 167.18 553.698 167.18 552.966Z" fill="#FFAE01" stroke="#3F3D56" stroke-width="4"/>
<g id="screen">
<path id="Vector_113" d="M361.205 427.412H175.588V525.565H361.205V427.412Z" fill="white"/>
<path id="Vector_114" d="M285.829 455.118H235.781V457.827H285.829V455.118Z" fill="#3F3D56"/>
<path id="Vector_115" d="M313.066 465H235.781V467.71H313.066V465Z" fill="#536DFE"/>
<path id="Vector_116" d="M298.767 474.311H235.781V477.02H298.767V474.311Z" fill="#536DFE"/>
<path id="Vector_117" d="M272.551 483.587H235.781V486.296H272.551V483.587Z" fill="#3F3D56"/>
<path id="Vector_118" d="M291.277 492.862H235.781V495.572H291.277V492.862Z" fill="#3F3D56"/>
<path id="Vector_119" d="M219.099 454.155H212.971V459.934H219.099V454.155Z" fill="#3F3D56"/>
<path id="Vector_120" d="M219.099 463.466H212.971V469.245H219.099V463.466Z" fill="#536DFE"/>
<path id="Vector_121" d="M219.099 472.776H212.971V478.556H219.099V472.776Z" fill="#536DFE"/>
<path id="Vector_122" d="M219.099 482.087H212.971V487.866H219.099V482.087Z" fill="#3F3D56"/>
<path id="Vector_123" d="M219.099 491.398H212.971V497.177H219.099V491.398Z" fill="#3F3D56"/>
</g>
</g>
<g id="train-shadow">
<path id="path1891_2" d="M453.644 759.68L478.711 846.707L515.281 913.751C515.281 913.751 513.604 933.23 575.673 949.931C637.742 966.631 687.033 966.631 687.033 966.631L2551.75 966.632L2404.7 727.681H2047.08H829.427H446.058L453.644 759.68Z" fill="url(#paint3_linear_92:39)"/>
</g>
<g id="person">
<g id="person 2">
<path id="Path 2996" d="M1690.05 834.886C1690.6 834.811 1691.13 834.588 1691.59 834.233C1692.06 833.879 1692.46 833.4 1692.77 832.832C1693.07 832.264 1693.27 831.62 1693.36 830.946C1693.44 830.271 1693.4 829.582 1693.25 828.928L1704.11 819.285L1697.64 816.188L1688.31 825.819C1687.44 826.215 1686.72 826.994 1686.29 828.007C1685.85 829.019 1685.73 830.196 1685.94 831.314C1686.16 832.432 1686.69 833.413 1687.45 834.071C1688.21 834.729 1689.14 835.019 1690.05 834.886H1690.05Z" fill="#FFB7B7"/>
<path id="Path 2997" d="M1696.09 828.535L1692.48 820.885L1692.56 820.777L1707.1 800.207L1718.39 776.283L1728.19 777.835L1728.34 781.517L1728.31 781.572L1712.73 810.667L1712.72 810.684L1696.09 828.535Z" fill="#3F3D56"/>
<path id="Path 2998" d="M1744.13 957.961H1738.58L1735.95 931.388H1744.13L1744.13 957.961Z" fill="#FFB7B7"/>
<path id="Path 2999" d="M1745.54 964.639H1727.66V964.357C1727.67 962.065 1728.4 959.867 1729.7 958.246C1731.01 956.625 1732.78 955.714 1734.62 955.714H1745.54L1745.54 964.639Z" fill="#2F2E41"/>
<path id="Path 3000" d="M1696.41 957.736L1691.02 956.135L1693.42 929.528L1701.38 931.889L1696.41 957.736Z" fill="#FFB7B7"/>
<path id="Path 3001" d="M1696.54 964.639L1679.15 959.479L1679.2 959.206C1679.63 956.976 1680.76 955.048 1682.33 953.848C1683.9 952.647 1685.79 952.272 1687.59 952.804L1698.21 955.955L1696.54 964.639Z" fill="#2F2E41"/>
<path id="Path 3002" d="M1717.96 764.136V752.539C1717.96 748.418 1719.28 744.465 1721.62 741.551C1723.97 738.637 1727.15 737 1730.46 737C1733.78 737 1736.96 738.637 1739.31 741.551C1741.65 744.465 1742.97 748.418 1742.97 752.539V764.136C1742.97 764.689 1742.79 765.219 1742.48 765.61C1742.16 766.001 1741.74 766.221 1741.29 766.222H1719.64C1719.19 766.221 1718.77 766.001 1718.45 765.61C1718.14 765.219 1717.96 764.689 1717.96 764.136V764.136Z" fill="#2F2E41"/>
<path id="Ellipse 572" d="M1727.38 766.047C1732.44 766.047 1736.55 760.946 1736.55 754.654C1736.55 748.362 1732.44 743.261 1727.38 743.261C1722.31 743.261 1718.21 748.362 1718.21 754.654C1718.21 760.946 1722.31 766.047 1727.38 766.047Z" fill="#FFB7B7"/>
<path id="Path 3003" d="M1715 753.467C1715 750.208 1716.05 747.083 1717.9 744.779C1719.76 742.474 1722.27 741.178 1724.89 741.175H1726.76C1729.38 741.178 1731.9 742.474 1733.75 744.779C1735.61 747.083 1736.65 750.208 1736.65 753.467V753.699H1732.71L1731.36 749.018L1731.09 753.699H1729.05L1728.37 751.337L1728.24 753.699H1715V753.467Z" fill="#2F2E41"/>
<path id="Path 3004" d="M1732.72 814.784L1709.38 813.68L1708.08 794.703C1707.07 791.23 1707.05 788.245 1708.03 785.839C1708.87 783.861 1710.27 782.349 1711.97 781.605L1717.08 773.939C1717.73 772.954 1718.56 772.162 1719.49 771.621C1720.43 771.08 1721.44 770.804 1722.47 770.812L1735.75 770.925C1736.07 770.686 1738.01 769.46 1741.84 771.521C1745.99 773.757 1745.02 781.523 1745.01 781.601L1745 781.674L1744.96 781.724L1736.13 790.964L1732.72 814.784Z" fill="#3F3D56"/>
<path id="Path 3005" d="M1709.57 811.641L1698.53 836.657L1690.15 950.466L1699.61 954.056L1716.36 865.026L1735.79 951.53L1747.13 951.881L1739.41 852.056L1732.66 813.407L1709.57 811.641Z" fill="#2F2E41"/>
<path id="Path 3006" d="M1712.83 819.15C1712.6 818.909 1712.35 819.317 1712.27 820.06L1709.97 842.614C1709.9 843.359 1710.03 844.154 1710.26 844.398L1738.82 873.872C1739.06 874.112 1739.31 873.705 1739.38 872.961L1741.68 850.408C1741.76 849.663 1741.63 848.868 1741.39 848.625L1712.83 819.15Z" fill="#536DFE"/>
<path id="Path 3011" d="M1739.07 852.14C1739.48 851.684 1739.8 851.122 1740.02 850.494C1740.23 849.866 1740.33 849.188 1740.31 848.506C1740.29 847.824 1740.16 847.155 1739.91 846.547C1739.66 845.939 1739.3 845.406 1738.87 844.986L1743.18 829.286L1736.47 831.454L1733.4 846.03C1732.88 846.98 1732.66 848.135 1732.78 849.275C1732.9 850.414 1733.35 851.46 1734.05 852.213C1734.75 852.967 1735.65 853.375 1736.57 853.362C1737.5 853.348 1738.39 852.914 1739.07 852.14L1739.07 852.14Z" fill="#FFB7B7"/>
<path id="Path 3012" d="M1740.99 842.612L1734.48 839.003L1736.67 811.615L1734.63 783.998L1743.33 778.163L1745.17 781.051V781.117L1746.15 816.04L1746.14 816.066L1740.99 842.612Z" fill="#3F3D56"/>
</g>
<ellipse id="Ellipse 598" cx="1706.65" cy="965" rx="62.5" ry="13" fill="url(#paint4_radial_92:39)" fill-opacity="0.57"/>
</g>
<g id="person_2">
<g id="person 2_2">
<path id="Path 2996_2" d="M436.426 852.169C435.85 852.094 435.294 851.871 434.799 851.516C434.303 851.161 433.88 850.683 433.559 850.115C433.237 849.547 433.026 848.903 432.938 848.229C432.851 847.554 432.891 846.865 433.054 846.21L421.582 836.568L428.419 833.47L438.265 843.102C439.182 843.498 439.943 844.276 440.404 845.289C440.866 846.302 440.995 847.479 440.769 848.597C440.542 849.714 439.975 850.695 439.174 851.354C438.374 852.012 437.396 852.302 436.426 852.169H436.426Z" fill="#FFB7B7"/>
<path id="Path 2997_2" d="M430.055 845.818L433.861 838.168L433.78 838.059L418.425 817.489L406.503 793.565L396.15 795.118L395.997 798.8L396.028 798.855L412.476 827.949L412.493 827.967L430.055 845.818Z" fill="#3222EA"/>
<path id="Path 2998_2" d="M379.324 975.243H385.178L387.964 948.671H379.323L379.324 975.243Z" fill="#FFB7B7"/>
<path id="Path 2999_2" d="M377.831 981.922H396.709V981.64C396.708 979.348 395.934 977.15 394.557 975.529C393.179 973.908 391.311 972.997 389.363 972.997H377.832L377.831 981.922Z" fill="#2F2E41"/>
<path id="Path 3000_2" d="M429.712 975.018L435.406 973.418L432.871 946.811L424.466 949.172L429.712 975.018Z" fill="#FFB7B7"/>
<path id="Path 3001_2" d="M429.578 981.921L447.94 976.762L447.884 976.489C447.432 974.258 446.245 972.331 444.584 971.13C442.924 969.93 440.926 969.555 439.031 970.087L427.816 973.238L429.578 981.921Z" fill="#2F2E41"/>
<path id="Path 3002_2" d="M406.958 781.418V769.822C406.958 765.701 405.566 761.748 403.09 758.834C400.613 755.92 397.254 754.283 393.752 754.283C390.249 754.283 386.89 755.92 384.414 758.834C381.937 761.748 380.546 765.701 380.546 769.822V781.418C380.547 781.971 380.734 782.502 381.066 782.893C381.399 783.284 381.849 783.504 382.319 783.505H405.184C405.654 783.504 406.105 783.284 406.437 782.893C406.77 782.502 406.957 781.972 406.958 781.418V781.418Z" fill="#EFB00F"/>
<path id="Ellipse 572_2" d="M397.011 783.33C391.663 783.33 387.329 778.229 387.329 771.937C387.329 765.645 391.663 760.544 397.011 760.544C402.358 760.544 406.693 765.645 406.693 771.937C406.693 778.229 402.358 783.33 397.011 783.33Z" fill="#FFB7B7"/>
<path id="Path 3003_2" d="M410.082 770.749C410.079 767.49 408.977 764.366 407.019 762.062C405.061 759.757 402.405 758.461 399.636 758.457H397.665C394.895 758.461 392.24 759.757 390.281 762.062C388.323 764.366 387.221 767.49 387.218 770.749V770.981H391.384L392.804 766.3L393.089 770.981H395.242L395.959 768.62L396.103 770.981H410.082V770.749Z" fill="#EFB00F"/>
<path id="Path 3004_2" d="M391.365 832.066L416.017 830.963L417.395 811.986C418.458 808.513 418.475 805.528 417.446 803.122C416.561 801.144 415.074 799.632 413.283 798.888L407.889 791.222C407.195 790.236 406.324 789.445 405.338 788.904C404.352 788.363 403.277 788.087 402.19 788.095L388.173 788.208C387.836 787.969 385.786 786.743 381.745 788.804C377.361 791.039 378.379 798.806 378.39 798.884L378.4 798.957L378.448 799.006L387.771 808.246L391.365 832.066Z" fill="#3222EA"/>
<path id="Path 3005_2" d="M415.819 828.923L427.479 853.94L436.32 967.749L426.331 971.339L408.651 882.309L388.133 968.813L376.157 969.164L384.31 869.338L391.435 830.69L415.819 828.923Z" fill="#747386"/>
<path id="Path 3011_2" d="M384.665 869.422C384.234 868.966 383.893 868.404 383.666 867.777C383.439 867.149 383.331 866.47 383.351 865.788C383.371 865.106 383.518 864.438 383.781 863.83C384.044 863.222 384.417 862.689 384.874 862.269L380.322 846.568L387.415 848.736L390.647 863.312C391.196 864.263 391.43 865.417 391.304 866.557C391.177 867.697 390.7 868.743 389.963 869.496C389.225 870.249 388.278 870.658 387.301 870.644C386.325 870.631 385.386 870.196 384.664 869.423L384.665 869.422Z" fill="#FFB7B7"/>
<path id="Path 3012_2" d="M382.632 859.894L389.513 856.286L387.201 828.898L389.354 801.28L380.167 795.446L378.22 798.334V798.4L377.189 833.322L377.194 833.349L382.632 859.894Z" fill="#210FEB"/>
</g>
<g id="person_shadow" opacity="0.23">
<path id="Path 2999_3" d="M378.007 981.337H396.439V981.554C396.438 983.326 395.683 985.025 394.338 986.278C392.993 987.531 391.169 988.235 389.267 988.235H378.008L378.007 981.337Z" fill="black"/>
<path id="Path 3001_3" d="M429.504 980.793L447.77 975.693L447.863 975.955C448.628 978.096 448.612 980.358 447.82 982.244C447.027 984.13 445.523 985.486 443.637 986.013L432.482 989.128L429.504 980.793Z" fill="black"/>
<path id="Path 3005_3" d="M418.534 1095.95L450.007 1081.47L445.042 984.353L432.628 986.333L426.669 1064.14L389.428 986.333H378.007L407.8 1090.13L401.842 1095.95H418.534Z" fill="url(#paint5_linear_92:39)"/>
</g>
</g>
<g id="person_3">
<g id="person 4">
<path id="Vector_124" d="M864.57 809.124C864.57 809.124 860.701 830.846 865.429 830.846C870.158 830.846 881.336 806.266 881.336 806.266L877.467 799.978L870.522 812.798L870.158 806.266L864.57 809.124Z" fill="#A0616A"/>
<path id="Vector_125" d="M880.305 807.21C882.383 807.21 884.068 804.969 884.068 802.205C884.068 799.441 882.383 797.2 880.305 797.2C878.226 797.2 876.541 799.441 876.541 802.205C876.541 804.969 878.226 807.21 880.305 807.21Z" fill="#A0616A"/>
<path id="Vector_126" d="M861.289 957.068L866.299 957.067L868.683 931.37L861.288 931.371L861.289 957.068Z" fill="#A0616A"/>
<path id="Vector_127" d="M861.113 964.017L876.52 964.016V963.757C876.52 961.643 875.888 959.615 874.763 958.119C873.638 956.624 872.113 955.784 870.523 955.784H870.522L867.708 952.945L862.457 955.784L861.112 955.784L861.113 964.017Z" fill="#2F2E41"/>
<path id="Vector_128" d="M807.396 948.756L811.878 951.73L822.641 930.153L816.025 925.763L807.396 948.756Z" fill="#A0616A"/>
<path id="Vector_129" d="M805.068 953.269L818.829 962.439L818.915 962.207C819.624 960.31 819.74 958.115 819.237 956.104C818.734 954.093 817.653 952.432 816.233 951.485L816.232 951.485L814.671 947.264L809.029 946.685L807.828 945.884L805.068 953.269Z" fill="#2F2E41"/>
<path id="Vector_130" d="M829.042 847.647C829.042 847.647 827.059 879.397 826.633 886.2C826.341 890.465 825.625 894.659 824.504 898.673C824.504 898.673 823.653 900.941 823.653 903.209L814.002 926.564C814.002 926.564 811.053 929.45 811.479 931.718C811.904 933.986 809.701 935.346 809.701 935.346L819.864 937.955C819.864 937.955 819.438 936.254 820.715 935.687C821.992 935.12 823.009 930.202 823.009 930.202L837.277 899.24L847.495 870.893C847.495 870.893 853.456 896.405 854.733 899.24C854.733 899.24 859.417 930.989 860.268 933.824C861.12 936.659 861.545 936.659 861.12 937.793C860.694 938.927 860.694 940.061 861.12 940.627C861.545 941.194 869.635 940.627 869.635 940.627L867.506 900.374L863.674 852.183L844.089 844.246L829.042 847.647Z" fill="#2F2E41"/>
<path id="Vector_131" d="M848.258 772.111C853.244 772.111 857.286 766.736 857.286 760.106C857.286 753.477 853.244 748.102 848.258 748.102C843.272 748.102 839.23 753.477 839.23 760.106C839.23 766.736 843.272 772.111 848.258 772.111Z" fill="#A0616A"/>
<path id="Vector_132" d="M864.424 789.341L853.785 780.757C853.785 780.757 853.49 775.426 850.458 775.176C848.937 775.05 846.653 774.857 843.226 774.563C842.501 774.501 842.013 779.778 841.183 779.706L829.952 783.673L831.655 822.212C831.655 822.212 829.101 837.514 829.952 840.348C830.803 843.181 827.825 844.315 828.676 844.882C829.527 845.448 828.676 849.416 828.676 849.416C828.676 849.416 845.273 860.75 863.572 852.249L861.87 844.882C862.102 843.918 862.145 842.893 861.996 841.901C861.847 840.909 861.511 839.985 861.019 839.214C861.019 839.214 862.721 835.814 860.593 832.98C860.593 832.98 861.445 827.879 859.317 825.612L858.891 817.678L860.168 813.711L864.424 789.341Z" fill="#F3C4C4"/>
<path id="Vector_133" d="M840.458 766.862L840.208 766.085C840.175 765.985 837.006 755.976 839.815 749.802C841.116 746.944 843.48 745.331 846.843 745.007C852.104 744.499 855.705 746.166 857.549 749.959C857.858 750.602 858.032 751.344 858.052 752.108C858.072 752.872 857.938 753.628 857.663 754.299C857.389 754.969 856.984 755.528 856.492 755.917C855.999 756.306 855.438 756.511 854.866 756.51H854.795L853.828 754.833L853.772 754.996C853.422 756.008 852.618 756.561 851.677 756.44C851.517 756.425 851.375 756.609 851.261 757.005C851.223 757.177 851.15 757.333 851.051 757.456C850.952 757.578 850.83 757.663 850.698 757.701C850.003 757.882 849.011 756.711 848.567 756.128C848.55 756.262 848.512 756.39 848.454 756.503C848.397 756.615 848.322 756.71 848.235 756.781C847.767 757.142 847.04 756.671 846.831 756.521C845.166 756.993 844.089 756.867 843.627 756.146C843.314 759.103 842.643 764.427 841.837 764.722C841.753 764.748 841.665 764.737 841.586 764.691C841.507 764.645 841.441 764.566 841.398 764.466C841.204 764.129 841.03 763.962 840.922 764.009C840.66 764.12 840.506 765.273 840.483 766.017L840.458 766.862Z" fill="#2F2E41"/>
<path id="Vector_134" d="M859.997 790.225L864.285 789.298C867.374 793.245 869.478 798.357 870.314 803.944C871.604 813.09 872.034 814.805 872.034 814.805L861.716 818.234L856.127 803.944L859.997 790.225Z" fill="#F3C4C4"/>
<path id="Vector_135" d="M823.455 805.659C823.455 805.659 819.586 827.381 824.315 827.381C829.044 827.381 840.221 802.801 840.221 802.801L836.352 796.513L829.408 809.333L829.044 802.801L823.455 805.659Z" fill="#A0616A"/>
<path id="Vector_136" d="M839.19 803.745C841.269 803.745 842.954 801.504 842.954 798.74C842.954 795.976 841.269 793.735 839.19 793.735C837.111 793.735 835.426 795.976 835.426 798.74C835.426 801.504 837.111 803.745 839.19 803.745Z" fill="#A0616A"/>
<path id="Vector_137" d="M833.035 787.367L830.456 783.937C830.456 783.937 825.297 787.938 824.867 791.94C824.438 795.941 822.288 808.517 822.288 808.517L830.241 809.374L832.821 804.23L833.035 787.367Z" fill="#F3C4C4"/>
<path id="Vector_138" d="M864.57 809.124C864.57 809.124 860.701 830.846 865.429 830.846C870.158 830.846 881.336 806.266 881.336 806.266L877.467 799.978L870.522 812.798L870.158 806.266L864.57 809.124Z" fill="#A0616A"/>
<path id="Vector_139" d="M805.068 953.269L818.829 962.439L818.915 962.207C819.624 960.31 819.74 958.115 819.237 956.104C818.734 954.093 817.653 952.432 816.233 951.485L816.232 951.485L814.671 947.264L809.029 946.685L807.828 945.884L805.068 953.269Z" fill="#2F2E41"/>
<path id="Vector_140" d="M829.042 847.647C829.042 847.647 827.059 879.397 826.633 886.2C826.341 890.465 825.625 894.659 824.504 898.673C824.504 898.673 823.653 900.941 823.653 903.209L814.002 926.564C814.002 926.564 811.053 929.45 811.479 931.718C811.904 933.986 809.701 935.346 809.701 935.346L819.864 937.955C819.864 937.955 819.438 936.254 820.715 935.687C821.992 935.12 823.009 930.202 823.009 930.202L837.277 899.24L847.495 870.893C847.495 870.893 853.456 896.405 854.733 899.24C854.733 899.24 859.417 930.989 860.268 933.824C861.12 936.659 861.545 936.659 861.12 937.793C860.694 938.927 860.694 940.061 861.12 940.627C861.545 941.194 869.635 940.627 869.635 940.627L867.506 900.374L863.674 852.183L844.089 844.246L829.042 847.647Z" fill="#2F2E41"/>
<path id="Vector_141" d="M864.424 789.341L853.785 780.757C853.785 780.757 853.49 775.426 850.458 775.176C848.937 775.05 846.653 774.857 843.226 774.563C842.501 774.501 842.013 779.778 841.183 779.706L829.952 783.673L831.655 822.212C831.655 822.212 829.101 837.514 829.952 840.348C830.803 843.181 827.825 844.315 828.676 844.882C829.527 845.448 828.676 849.416 828.676 849.416C828.676 849.416 845.273 860.75 863.572 852.249L861.87 844.882C862.102 843.918 862.145 842.893 861.996 841.901C861.847 840.909 861.511 839.985 861.019 839.214C861.019 839.214 862.721 835.814 860.593 832.98C860.593 832.98 861.445 827.879 859.317 825.612L858.891 817.678L860.168 813.711L864.424 789.341Z" fill="#F3C4C4"/>
<path id="Vector_142" d="M840.458 766.862L840.208 766.085C840.175 765.985 837.006 755.976 839.815 749.802C841.116 746.944 843.48 745.331 846.843 745.007C852.104 744.499 855.705 746.166 857.549 749.959C857.858 750.602 858.032 751.344 858.052 752.108C858.072 752.872 857.938 753.628 857.663 754.299C857.389 754.969 856.984 755.528 856.492 755.917C855.999 756.306 855.438 756.511 854.866 756.51H854.795L853.828 754.833L853.772 754.996C853.422 756.008 852.618 756.561 851.677 756.44C851.517 756.425 851.375 756.609 851.261 757.005C851.223 757.177 851.15 757.333 851.051 757.456C850.952 757.578 850.83 757.663 850.698 757.701C850.003 757.882 849.011 756.711 848.567 756.128C848.55 756.262 848.512 756.39 848.454 756.503C848.397 756.615 848.322 756.71 848.235 756.781C847.767 757.142 847.04 756.671 846.831 756.521C845.166 756.993 844.089 756.867 843.627 756.146C843.314 759.103 842.643 764.427 841.837 764.722C841.753 764.748 841.665 764.737 841.586 764.691C841.507 764.645 841.441 764.566 841.398 764.466C841.204 764.129 841.03 763.962 840.922 764.009C840.66 764.12 840.506 765.273 840.483 766.017L840.458 766.862Z" fill="#2F2E41"/>
<path id="Vector_143" d="M859.997 790.225L864.285 789.298C867.374 793.245 869.478 798.357 870.314 803.944C871.604 813.09 872.034 814.805 872.034 814.805L861.716 818.234L856.127 803.944L859.997 790.225Z" fill="#F3C4C4"/>
<path id="Vector_144" d="M823.455 805.659C823.455 805.659 819.586 827.381 824.315 827.381C829.044 827.381 840.221 802.801 840.221 802.801L836.352 796.513L829.408 809.333L829.044 802.801L823.455 805.659Z" fill="#A0616A"/>
<path id="Vector_145" d="M839.19 803.745C841.269 803.745 842.954 801.504 842.954 798.74C842.954 795.976 841.269 793.735 839.19 793.735C837.111 793.735 835.426 795.976 835.426 798.74C835.426 801.504 837.111 803.745 839.19 803.745Z" fill="#A0616A"/>
<path id="Vector_146" d="M833.035 787.367L830.456 783.937C830.456 783.937 825.297 787.938 824.867 791.94C824.438 795.941 822.288 808.517 822.288 808.517L830.241 809.374L832.821 804.23L833.035 787.367Z" fill="#F3C4C4"/>
</g>
<ellipse id="Ellipse 600" cx="843.568" cy="963.918" rx="62.5" ry="13" fill="url(#paint6_radial_92:39)" fill-opacity="0.57"/>
</g>
<g id="person_4">
<g id="person 2_3">
<path id="Path 2996_3" d="M531.217 655.309C530.78 655.249 530.359 655.071 529.984 654.787C529.609 654.503 529.288 654.12 529.045 653.666C528.801 653.212 528.641 652.696 528.575 652.157C528.509 651.617 528.539 651.066 528.663 650.542L519.972 642.828L525.151 640.35L532.61 648.055C533.305 648.372 533.881 648.995 534.231 649.805C534.58 650.616 534.679 651.557 534.507 652.451C534.335 653.345 533.905 654.13 533.299 654.657C532.692 655.184 531.951 655.416 531.217 655.309H531.217Z" fill="#FFB7B7"/>
<path id="Path 2997_3" d="M526.391 650.228L529.274 644.108L529.213 644.021L517.58 627.565L508.548 608.426L500.705 609.668L500.589 612.614L500.613 612.658L513.073 635.933L513.087 635.947L526.391 650.228Z" fill="#3F3D56"/>
<path id="Path 2998_3" d="M487.958 753.768H492.393L494.503 732.51H487.957L487.958 753.768Z" fill="#FFB7B7"/>
<path id="Path 2999_4" d="M486.827 759.111H501.128V758.886C501.128 757.052 500.541 755.294 499.498 753.997C498.454 752.7 497.039 751.971 495.563 751.971H486.827L486.827 759.111Z" fill="#2F2E41"/>
<path id="Path 3000_3" d="M526.13 753.588L530.445 752.308L528.524 731.022L522.157 732.911L526.13 753.588Z" fill="#FFB7B7"/>
<path id="Path 3001_4" d="M526.029 759.111L539.939 754.983L539.898 754.765C539.555 752.981 538.655 751.439 537.398 750.478C536.14 749.518 534.626 749.217 533.19 749.643L524.694 752.164L526.029 759.111Z" fill="#2F2E41"/>
<path id="Path 3002_3" d="M508.893 598.709V589.431C508.893 586.134 507.839 582.972 505.962 580.641C504.086 578.31 501.541 577 498.888 577C496.235 577 493.69 578.31 491.814 580.641C489.938 582.972 488.884 586.134 488.884 589.431V598.709C488.884 599.151 489.026 599.575 489.278 599.888C489.53 600.201 489.871 600.377 490.227 600.378H507.549C507.905 600.377 508.246 600.201 508.498 599.888C508.75 599.575 508.892 599.151 508.893 598.709V598.709Z" fill="#2F2E41"/>
<path id="Ellipse 572_3" d="M501.357 600.238C497.306 600.238 494.022 596.157 494.022 591.124C494.022 586.09 497.306 582.009 501.357 582.009C505.408 582.009 508.692 586.09 508.692 591.124C508.692 596.157 505.408 600.238 501.357 600.238Z" fill="#FFB7B7"/>
<path id="Path 3003_3" d="M511.259 590.173C511.257 587.566 510.422 585.067 508.939 583.223C507.455 581.38 505.444 580.343 503.345 580.34H501.852C499.754 580.343 497.742 581.38 496.259 583.223C494.775 585.067 493.941 587.566 493.938 590.173V590.359H497.094L498.17 586.614L498.385 590.359H500.017L500.56 588.47L500.669 590.359H511.259V590.173Z" fill="#2F2E41"/>
<path id="Path 3004_3" d="M497.08 639.227L515.755 638.344L516.799 623.163C517.604 620.384 517.617 617.996 516.838 616.071C516.167 614.489 515.041 613.279 513.684 612.684L509.598 606.551C509.072 605.763 508.412 605.13 507.665 604.697C506.918 604.265 506.104 604.044 505.28 604.05L494.661 604.14C494.406 603.949 492.853 602.969 489.791 604.617C486.471 606.405 487.242 612.619 487.25 612.681L487.258 612.739L487.294 612.779L494.357 620.171L497.08 639.227Z" fill="#3F3D56"/>
<path id="Path 3005_4" d="M515.605 636.712L524.439 656.725L531.137 747.773L523.57 750.645L510.175 679.421L494.631 748.624L485.559 748.905L491.735 669.044L497.133 638.126L515.605 636.712Z" fill="#2F2E41"/>
<path id="Path 3006_2" d="M512.996 642.72C513.183 642.527 513.383 642.853 513.443 643.448L515.281 661.491C515.341 662.087 515.239 662.723 515.052 662.918L492.201 686.497C492.014 686.689 491.813 686.364 491.753 685.769L489.916 667.726C489.855 667.13 489.958 666.494 490.144 666.3L512.996 642.72Z" fill="#536DFE"/>
<path id="Path 3011_3" d="M492.005 669.112C491.678 668.747 491.42 668.298 491.248 667.795C491.076 667.293 490.994 666.75 491.009 666.204C491.024 665.659 491.136 665.124 491.335 664.638C491.534 664.151 491.817 663.725 492.163 663.389L488.714 650.829L494.088 652.563L496.536 664.224C496.952 664.984 497.129 665.908 497.034 666.82C496.938 667.731 496.577 668.568 496.018 669.171C495.459 669.773 494.742 670.1 494.002 670.089C493.262 670.079 492.551 669.731 492.004 669.112L492.005 669.112Z" fill="#FFB7B7"/>
<path id="Path 3012_3" d="M490.464 661.489L495.677 658.603L493.926 636.692L495.557 614.598L488.596 609.93L487.122 612.241V612.293L486.34 640.232L486.344 640.253L490.464 661.489Z" fill="#3F3D56"/>
</g>
<ellipse id="Ellipse 598_2" rx="50" ry="10.4" transform="matrix(-1 0 0 1 517.939 759.4)" fill="url(#paint7_radial_92:39)" fill-opacity="0.57"/>
</g>
</g>
<defs>
<radialGradient id="paint0_radial_92:39" cx="0" cy="0" r="1" gradientUnits="userSpaceOnUse" gradientTransform="translate(557.661 -453.966) rotate(103.128) scale(1194.03 3193.03)">
<stop offset="0.23021" stop-color="#55ACFC"/>
<stop offset="1" stop-color="white"/>
</radialGradient>
<linearGradient id="paint1_linear_92:39" x1="32640.8" y1="26345.7" x2="32640.8" y2="4.41992" gradientUnits="userSpaceOnUse">
<stop stop-color="#808080" stop-opacity="0.25"/>
<stop offset="0.54" stop-color="#808080" stop-opacity="0.12"/>
<stop offset="1" stop-color="#808080" stop-opacity="0.1"/>
</linearGradient>
<linearGradient id="paint2_linear_92:39" x1="1071" y1="1136.04" x2="1007.92" y2="418.862" gradientUnits="userSpaceOnUse">
<stop offset="0.123398" stop-color="#949494"/>
<stop offset="1" stop-color="white"/>
</linearGradient>
<linearGradient id="paint3_linear_92:39" x1="1498.9" y1="966.632" x2="1498.9" y2="727.681" gradientUnits="userSpaceOnUse">
<stop stop-color="#C4C4C4" stop-opacity="0"/>
<stop offset="1" stop-color="#4B4B4B"/>
</linearGradient>
<radialGradient id="paint4_radial_92:39" cx="0" cy="0" r="1" gradientUnits="userSpaceOnUse" gradientTransform="translate(1706.65 965) rotate(90) scale(13 62.5)">
<stop stop-opacity="0.32"/>
<stop offset="1" stop-opacity="0"/>
</radialGradient>
<linearGradient id="paint5_linear_92:39" x1="414.007" y1="1095.95" x2="414.007" y2="984.353" gradientUnits="userSpaceOnUse">
<stop offset="0.148958" stop-opacity="0"/>
<stop offset="0.8625"/>
</linearGradient>
<radialGradient id="paint6_radial_92:39" cx="0" cy="0" r="1" gradientUnits="userSpaceOnUse" gradientTransform="translate(843.568 963.918) rotate(90) scale(13 62.5)">
<stop stop-opacity="0.32"/>
<stop offset="1" stop-opacity="0"/>
</radialGradient>
<radialGradient id="paint7_radial_92:39" cx="0" cy="0" r="1" gradientUnits="userSpaceOnUse" gradientTransform="translate(50 10.4) rotate(90) scale(10.4 50)">
<stop stop-opacity="0.32"/>
<stop offset="1" stop-opacity="0"/>
</radialGradient>
<clipPath id="clip0_92:39">
<rect width="1920" height="1080" fill="white"/>
</clipPath>
<clipPath id="clip1_92:39">
<rect width="554" height="753" fill="white" transform="translate(821.65 6.61108)"/>
</clipPath>
</defs>
</svg>
